<svg xmlns:ev="http://www.w3.org/2001/xml-events" viewBox="0 0 1147 836" height="836" xmlns:xlink="http://www.w3.org/1999/xlink" xmlns="http://www.w3.org/2000/svg" width="1147"><defs/><g transform="translate(5.5,5.5)" id="page1"><rect height="826" x="0" y="0" width="1137" fill="#ffffff"/><path stroke-width="1.666669964790344" stroke="#191919" d="M.0,.0L981.0,.0" transform="translate(83.00,66.00)" id="shape1" fill="none"/><path stroke-width="1.666669964790344" stroke="#191919" d="M.0,.0L982.0,.0" transform="translate(82.00,84.00)" id="shape2" fill="none"/><path stroke-width="1.666669964790344" stroke="#191919" d="M.0,.0L982.0,.0" transform="translate(82.00,103.00)" id="shape3" fill="none"/><path stroke-width="1.666669964790344" stroke="#191919" d="M.0,.0L982.0,.0" transform="translate(82.00,122.00)" id="shape4" fill="none"/><path stroke-width="1.666669964790344" stroke="#191919" d="M.0,.0L982.0,.0" transform="translate(82.00,141.00)" id="shape5" fill="none"/><path stroke-width="1.666669964790344" stroke="#191919" d="M.0,.0L982.0,.0" transform="translate(82.00,160.00)" id="shape6" fill="none"/><path stroke-width="1.666669964790344" stroke="#191919" d="M.0,.0L982.0,.0" transform="translate(82.00,179.00)" id="shape7" fill="none"/><path stroke-width="1.666669964790344" stroke="#191919" d="M.0,.0L981.0,.0" transform="translate(83.00,198.00)" id="shape8" fill="none"/><path stroke-width="1.666669964790344" stroke="#191919" d="M.0,.0L981.0,.0" transform="translate(83.00,236.00)" id="shape9" fill="none"/><path stroke-width="1.666669964790344" stroke="#191919" d="M.0,.0L981.0,.0" transform="translate(83.00,217.00)" id="shape10" fill="none"/><path stroke-width="1.666669964790344" stroke="#191919" d="M.0,.0L981.0,.0" transform="translate(83.00,255.00)" id="shape11" fill="none"/><path stroke-width="1.666669964790344" stroke="#191919" d="M.0,.0L981.0,.0" transform="translate(83.00,273.00)" id="shape12" fill="none"/><path stroke-width="1.666669964790344" stroke="#191919" d="M.0,.0L981.0,.0" transform="translate(83.00,292.00)" id="shape13" fill="none"/><path stroke-width="1.666669964790344" stroke="#191919" d="M.0,.0L981.0,.0" transform="translate(83.00,311.00)" id="shape14" fill="none"/><path stroke-width="1.666669964790344" stroke="#191919" d="M.0,.0L981.0,.0" transform="translate(83.00,330.00)" id="shape15" fill="none"/><path stroke-width="1.666669964790344" stroke="#191919" d="M.0,.0L981.0,.0" transform="translate(83.00,349.00)" id="shape16" fill="none"/><path stroke-width="1.666669964790344" stroke="#191919" d="M.0,.0L981.0,.0" transform="translate(83.00,368.00)" id="shape17" fill="none"/><path stroke-width="1.666669964790344" stroke="#191919" d="M.0,.0L981.0,.0" transform="translate(83.00,387.00)" id="shape18" fill="none"/><g transform="translate(39.50,39.00)" id="shape19"><text style="fill:#191919;font-family:Microsoft YaHei;font-size:9.00pt" xml:space="preserve"><tspan x="5.3" y="30.5">U[0]</tspan></text></g><g transform="translate(39.50,57.00)" id="shape20"><text style="fill:#191919;font-family:Microsoft YaHei;font-size:9.00pt" xml:space="preserve"><tspan x="5.3" y="30.5">U[1]</tspan></text></g><g transform="translate(39.50,76.00)" id="shape21"><text style="fill:#191919;font-family:Microsoft YaHei;font-size:9.00pt" xml:space="preserve"><tspan x="5.3" y="30.5">U[2]</tspan></text></g><g transform="translate(39.50,95.00)" id="shape22"><text style="fill:#191919;font-family:Microsoft YaHei;font-size:9.00pt" xml:space="preserve"><tspan x="5.3" y="30.5">U[3]</tspan></text></g><g transform="translate(39.50,133.00)" id="shape23"><text style="fill:#191919;font-family:Microsoft YaHei;font-size:9.00pt" xml:space="preserve"><tspan x="5.3" y="30.5">U[5]</tspan></text></g><g transform="translate(39.50,114.00)" id="shape24"><text style="fill:#191919;font-family:Microsoft YaHei;font-size:9.00pt" xml:space="preserve"><tspan x="5.3" y="30.5">U[4]</tspan></text></g><g transform="translate(39.50,170.00)" id="shape25"><text style="fill:#191919;font-family:Microsoft YaHei;font-size:9.00pt" xml:space="preserve"><tspan x="5.3" y="30.5">U[7]</tspan></text></g><g transform="translate(39.50,152.00)" id="shape26"><text style="fill:#191919;font-family:Microsoft YaHei;font-size:9.00pt" xml:space="preserve"><tspan x="5.3" y="30.5">U[6]</tspan></text></g><g transform="translate(39.50,190.00)" id="shape27"><text style="fill:#191919;font-family:Microsoft YaHei;font-size:9.00pt" xml:space="preserve"><tspan x="6.0" y="30.5">T[0]</tspan></text></g><g transform="translate(39.50,207.00)" id="shape28"><text style="fill:#191919;font-family:Microsoft YaHei;font-size:9.00pt" xml:space="preserve"><tspan x="6.0" y="30.5">T[1]</tspan></text></g><g transform="translate(39.50,228.00)" id="shape29"><text style="fill:#191919;font-family:Microsoft YaHei;font-size:9.00pt" xml:space="preserve"><tspan x="6.0" y="30.5">T[2]</tspan></text></g><g transform="translate(39.50,249.00)" id="shape30"><text style="fill:#191919;font-family:Microsoft YaHei;font-size:9.00pt" xml:space="preserve"><tspan x="6.0" y="30.5">T[3]</tspan></text></g><g transform="translate(39.50,265.00)" id="shape31"><text style="fill:#191919;font-family:Microsoft YaHei;font-size:9.00pt" xml:space="preserve"><tspan x="6.0" y="30.5">T[4]</tspan></text></g><g transform="translate(39.50,284.00)" id="shape32"><text style="fill:#191919;font-family:Microsoft YaHei;font-size:9.00pt" xml:space="preserve"><tspan x="6.0" y="30.5">T[5]</tspan></text></g><g transform="translate(39.50,303.00)" id="shape33"><text style="fill:#191919;font-family:Microsoft YaHei;font-size:9.00pt" xml:space="preserve"><tspan x="6.0" y="30.5">T[6]</tspan></text></g><g transform="translate(39.50,323.00)" id="shape34"><text style="fill:#191919;font-family:Microsoft YaHei;font-size:9.00pt" xml:space="preserve"><tspan x="6.0" y="30.5">T[7]</tspan></text></g><g transform="translate(39.50,341.00)" id="shape35"><text style="fill:#191919;font-family:Microsoft YaHei;font-size:9.00pt" xml:space="preserve"><tspan x="6.0" y="30.5">T[8]</tspan></text></g><g transform="translate(39.50,359.85)" id="shape36"><text style="fill:#191919;font-family:Microsoft YaHei;font-size:9.00pt" xml:space="preserve"><tspan x="6.0" y="30.5">T[9]</tspan></text></g><path d="M.0,4.0C.0,1.8,1.8,.0,4.0,.0C6.2,.0,8.0,1.8,8.0,4.0C8.0,6.2,6.2,8.0,4.0,8.0C1.8,8.0,.0,6.2,.0,4.0z" transform="translate(91.00,62.00)" fill-rule="nonzero" id="shape37" fill="#000000"/><g transform="translate(89.00,154.00)" id="group38"><g id="group39"><path stroke-width="1" d="M.0,6.0C.0,2.7,2.7,.0,6.0,.0C9.3,.0,12.0,2.7,12.0,6.0C12.0,9.3,9.3,12.0,6.0,12.0C2.7,12.0,.0,9.3,.0,6.0z" stroke="#000000" fill-rule="nonzero" id="shape40" fill="#ffffff"/></g><path stroke-width="1" stroke="#000000" d="M.0,6.0L12.0,6.0M6.0,.0L6.0,12.0" id="shape41" fill="none"/></g><path d="M.0,4.0C.0,1.8,1.8,.0,4.0,.0C6.2,.0,8.0,1.8,8.0,4.0C8.0,6.2,6.2,8.0,4.0,8.0C1.8,8.0,.0,6.2,.0,4.0z" transform="translate(110.00,118.00)" fill-rule="nonzero" id="shape42" fill="#000000"/><g transform="translate(108.00,154.00)" id="group43"><g id="group44"><path stroke-width="1" d="M.0,6.0C.0,2.7,2.7,.0,6.0,.0C9.3,.0,12.0,2.7,12.0,6.0C12.0,9.3,9.3,12.0,6.0,12.0C2.7,12.0,.0,9.3,.0,6.0z" stroke="#000000" fill-rule="nonzero" id="shape45" fill="#ffffff"/></g><path stroke-width="1" stroke="#000000" d="M.0,6.0L12.0,6.0M6.0,.0L6.0,12.0" id="shape46" fill="none"/></g><g transform="translate(127.00,154.00)" id="group47"><g id="group48"><path stroke-width="1" d="M.0,6.0C.0,2.7,2.7,.0,6.0,.0C9.3,.0,12.0,2.7,12.0,6.0C12.0,9.3,9.3,12.0,6.0,12.0C2.7,12.0,.0,9.3,.0,6.0z" stroke="#000000" fill-rule="nonzero" id="shape49" fill="#ffffff"/></g><path stroke-width="1" stroke="#000000" d="M.0,6.0L12.0,6.0M6.0,.0L6.0,12.0" id="shape50" fill="none"/></g><path d="M.0,4.0C.0,1.8,1.8,.0,4.0,.0C6.2,.0,8.0,1.8,8.0,4.0C8.0,6.2,6.2,8.0,4.0,8.0C1.8,8.0,.0,6.2,.0,4.0z" transform="translate(129.00,175.00)" fill-rule="nonzero" id="shape51" fill="#000000"/><path stroke-width="1" stroke="#191919" d="M.0,.0L.0,9.0" transform="translate(133.00,166.00)" id="shape52" fill="none"/><g transform="translate(155.00,135.00)" id="group53"><g id="group54"><path stroke-width="1" d="M.0,6.0C.0,2.7,2.7,.0,6.0,.0C9.3,.0,12.0,2.7,12.0,6.0C12.0,9.3,9.3,12.0,6.0,12.0C2.7,12.0,.0,9.3,.0,6.0z" stroke="#000000" fill-rule="nonzero" id="shape55" fill="#ffffff"/></g><path stroke-width="1" stroke="#000000" d="M.0,6.0L12.0,6.0M6.0,.0L6.0,12.0" id="shape56" fill="none"/></g><path d="M.0,4.0C.0,1.8,1.8,.0,4.0,.0C6.2,.0,8.0,1.8,8.0,4.0C8.0,6.2,6.2,8.0,4.0,8.0C1.8,8.0,.0,6.2,.0,4.0z" transform="translate(157.00,62.00)" fill-rule="nonzero" id="shape57" fill="#000000"/><path stroke-width="1" stroke="#191919" d="M.0,.0L.0,65.0" transform="translate(161.00,70.00)" id="shape58" fill="none"/><g transform="translate(174.00,135.00)" id="group59"><g id="group60"><path stroke-width="1" d="M.0,6.0C.0,2.7,2.7,.0,6.0,.0C9.3,.0,12.0,2.7,12.0,6.0C12.0,9.3,9.3,12.0,6.0,12.0C2.7,12.0,.0,9.3,.0,6.0z" stroke="#000000" fill-rule="nonzero" id="shape61" fill="#ffffff"/></g><path stroke-width="1" stroke="#000000" d="M.0,6.0L12.0,6.0M6.0,.0L6.0,12.0" id="shape62" fill="none"/></g><path d="M.0,4.0C.0,1.8,1.8,.0,4.0,.0C6.2,.0,8.0,1.8,8.0,4.0C8.0,6.2,6.2,8.0,4.0,8.0C1.8,8.0,.0,6.2,.0,4.0z" transform="translate(176.00,118.00)" fill-rule="nonzero" id="shape63" fill="#000000"/><path stroke-width="1" stroke="#191919" d="M.0,.0L.0,9.0" transform="translate(180.00,126.00)" id="shape64" fill="none"/><g transform="translate(193.00,135.00)" id="group65"><g id="group66"><path stroke-width="1" d="M.0,6.0C.0,2.7,2.7,.0,6.0,.0C9.3,.0,12.0,2.7,12.0,6.0C12.0,9.3,9.3,12.0,6.0,12.0C2.7,12.0,.0,9.3,.0,6.0z" stroke="#000000" fill-rule="nonzero" id="shape67" fill="#ffffff"/></g><path stroke-width="1" stroke="#000000" d="M.0,6.0L12.0,6.0M6.0,.0L6.0,12.0" id="shape68" fill="none"/></g><path d="M.0,4.0C.0,1.8,1.8,.0,4.0,.0C6.2,.0,8.0,1.8,8.0,4.0C8.0,6.2,6.2,8.0,4.0,8.0C1.8,8.0,.0,6.2,.0,4.0z" transform="translate(195.00,175.00)" fill-rule="nonzero" id="shape69" fill="#000000"/><path stroke-width="1" stroke="#191919" d="M.0,.0L.0,32.0" transform="translate(199.00,147.00)" id="shape70" fill="none"/><g transform="translate(215.00,212.00)" id="group71"><g id="group72"><path stroke-width="1" d="M.0,6.0C.0,2.7,2.7,.0,6.0,.0C9.3,.0,12.0,2.7,12.0,6.0C12.0,9.3,9.3,12.0,6.0,12.0C2.7,12.0,.0,9.3,.0,6.0z" stroke="#000000" fill-rule="nonzero" id="shape73" fill="#ffffff"/></g><path stroke-width="1" stroke="#000000" d="M.0,6.0L12.0,6.0M6.0,.0L6.0,12.0" id="shape74" fill="none"/></g><path d="M.0,4.0C.0,1.8,1.8,.0,4.0,.0C6.2,.0,8.0,1.8,8.0,4.0C8.0,6.2,6.2,8.0,4.0,8.0C1.8,8.0,.0,6.2,.0,4.0z" transform="translate(217.00,137.00)" fill-rule="nonzero" id="shape75" fill="#000000"/><path d="M.0,4.0C.0,1.8,1.8,.0,4.0,.0C6.2,.0,8.0,1.8,8.0,4.0C8.0,6.2,6.2,8.0,4.0,8.0C1.8,8.0,.0,6.2,.0,4.0z" transform="translate(217.00,156.00)" fill-rule="nonzero" id="shape76" fill="#000000"/><path stroke-width="1" stroke="#191919" d="M.0,.0L.0,19.0" transform="translate(221.00,141.00)" id="shape77" fill="none"/><path stroke-width="1" stroke="#191919" d="M.0,.0L.0,48.0" transform="translate(221.00,164.00)" id="shape78" fill="none"/><g transform="translate(237.00,305.00)" id="group79"><g id="group80"><path stroke-width="1" d="M.0,6.0C.0,2.7,2.7,.0,6.0,.0C9.3,.0,12.0,2.7,12.0,6.0C12.0,9.3,9.3,12.0,6.0,12.0C2.7,12.0,.0,9.3,.0,6.0z" stroke="#000000" fill-rule="nonzero" id="shape81" fill="#ffffff"/></g><path stroke-width="1" stroke="#000000" d="M.0,6.0L12.0,6.0M6.0,.0L6.0,12.0" id="shape82" fill="none"/></g><path d="M.0,4.0C.0,1.8,1.8,.0,4.0,.0C6.2,.0,8.0,1.8,8.0,4.0C8.0,6.2,6.2,8.0,4.0,8.0C1.8,8.0,.0,6.2,.0,4.0z" transform="translate(239.00,213.00)" fill-rule="nonzero" id="shape83" fill="#000000"/><path stroke-width="1" stroke="#191919" d="M.0,.0L.0,84.0" transform="translate(243.00,221.00)" id="shape84" fill="none"/><g transform="translate(255.00,116.00)" id="group85"><g id="group86"><path stroke-width="1" d="M.0,6.0C.0,2.7,2.7,.0,6.0,.0C9.3,.0,12.0,2.7,12.0,6.0C12.0,9.3,9.3,12.0,6.0,12.0C2.7,12.0,.0,9.3,.0,6.0z" stroke="#000000" fill-rule="nonzero" id="shape87" fill="#ffffff"/></g><path stroke-width="1" stroke="#000000" d="M.0,6.0L12.0,6.0M6.0,.0L6.0,12.0" id="shape88" fill="none"/></g><path d="M.0,4.0C.0,1.8,1.8,.0,4.0,.0C6.2,.0,8.0,1.8,8.0,4.0C8.0,6.2,6.2,8.0,4.0,8.0C1.8,8.0,.0,6.2,.0,4.0z" transform="translate(257.00,80.00)" fill-rule="nonzero" id="shape89" fill="#000000"/><path stroke-width="1" stroke="#191919" d="M.0,.0L.0,28.0" transform="translate(261.00,88.00)" id="shape90" fill="none"/><g transform="translate(274.00,116.00)" id="group91"><g id="group92"><path stroke-width="1" d="M.0,6.0C.0,2.7,2.7,.0,6.0,.0C9.3,.0,12.0,2.7,12.0,6.0C12.0,9.3,9.3,12.0,6.0,12.0C2.7,12.0,.0,9.3,.0,6.0z" stroke="#000000" fill-rule="nonzero" id="shape93" fill="#ffffff"/></g><path stroke-width="1" stroke="#000000" d="M.0,6.0L12.0,6.0M6.0,.0L6.0,12.0" id="shape94" fill="none"/></g><path d="M.0,4.0C.0,1.8,1.8,.0,4.0,.0C6.2,.0,8.0,1.8,8.0,4.0C8.0,6.2,6.2,8.0,4.0,8.0C1.8,8.0,.0,6.2,.0,4.0z" transform="translate(276.00,99.00)" fill-rule="nonzero" id="shape95" fill="#000000"/><path stroke-width="1" stroke="#191919" d="M.0,.0L.0,9.0" transform="translate(280.00,107.00)" id="shape96" fill="none"/><g transform="translate(293.00,191.00)" id="group97"><g id="group98"><path stroke-width="1" d="M.0,6.0C.0,2.7,2.7,.0,6.0,.0C9.3,.0,12.0,2.7,12.0,6.0C12.0,9.3,9.3,12.0,6.0,12.0C2.7,12.0,.0,9.3,.0,6.0z" stroke="#000000" fill-rule="nonzero" id="shape99" fill="#ffffff"/></g><path stroke-width="1" stroke="#000000" d="M.0,6.0L12.0,6.0M6.0,.0L6.0,12.0" id="shape100" fill="none"/></g><path d="M.0,4.0C.0,1.8,1.8,.0,4.0,.0C6.2,.0,8.0,1.8,8.0,4.0C8.0,6.2,6.2,8.0,4.0,8.0C1.8,8.0,.0,6.2,.0,4.0z" transform="translate(295.00,118.00)" fill-rule="nonzero" id="shape101" fill="#000000"/><path stroke-width="1" stroke="#191919" d="M.0,.0L.0,65.0" transform="translate(299.00,126.00)" id="shape102" fill="none"/><g transform="translate(314.00,211.00)" id="group103"><g id="group104"><path stroke-width="1" d="M.0,6.0C.0,2.7,2.7,.0,6.0,.0C9.3,.0,12.0,2.7,12.0,6.0C12.0,9.3,9.3,12.0,6.0,12.0C2.7,12.0,.0,9.3,.0,6.0z" stroke="#000000" fill-rule="nonzero" id="shape105" fill="#ffffff"/></g><path stroke-width="1" stroke="#000000" d="M.0,6.0L12.0,6.0M6.0,.0L6.0,12.0" id="shape106" fill="none"/></g><path d="M.0,4.0C.0,1.8,1.8,.0,4.0,.0C6.2,.0,8.0,1.8,8.0,4.0C8.0,6.2,6.2,8.0,4.0,8.0C1.8,8.0,.0,6.2,.0,4.0z" transform="translate(316.00,118.00)" fill-rule="nonzero" id="shape107" fill="#000000"/><path d="M.0,4.0C.0,1.8,1.8,.0,4.0,.0C6.2,.0,8.0,1.8,8.0,4.0C8.0,6.2,6.2,8.0,4.0,8.0C1.8,8.0,.0,6.2,.0,4.0z" transform="translate(316.00,193.00)" fill-rule="nonzero" id="shape108" fill="#000000"/><path stroke-width="1" stroke="#191919" d="M.0,.0L.0,10.0" transform="translate(320.00,201.00)" id="shape109" fill="none"/><path stroke-width="1" stroke="#191919" d="M.0,.0L.0,-71.0" transform="translate(320.00,193.00)" id="shape110" fill="none"/><g transform="translate(335.00,173.00)" id="group111"><g id="group112"><path stroke-width="1" d="M.0,6.0C.0,2.7,2.7,.0,6.0,.0C9.3,.0,12.0,2.7,12.0,6.0C12.0,9.3,9.3,12.0,6.0,12.0C2.7,12.0,.0,9.3,.0,6.0z" stroke="#000000" fill-rule="nonzero" id="shape113" fill="#ffffff"/></g><path stroke-width="1" stroke="#000000" d="M.0,6.0L12.0,6.0M6.0,.0L6.0,12.0" id="shape114" fill="none"/></g><path d="M.0,4.0C.0,1.8,1.8,.0,4.0,.0C6.2,.0,8.0,1.8,8.0,4.0C8.0,6.2,6.2,8.0,4.0,8.0C1.8,8.0,.0,6.2,.0,4.0z" transform="translate(337.00,62.00)" fill-rule="nonzero" id="shape115" fill="#000000"/><path stroke-width="1" stroke="#191919" d="M.0,.0L.0,103.0" transform="translate(341.00,70.00)" id="shape116" fill="none"/><g transform="translate(354.00,97.00)" id="group117"><g id="group118"><path stroke-width="1" d="M.0,6.0C.0,2.7,2.7,.0,6.0,.0C9.3,.0,12.0,2.7,12.0,6.0C12.0,9.3,9.3,12.0,6.0,12.0C2.7,12.0,.0,9.3,.0,6.0z" stroke="#000000" fill-rule="nonzero" id="shape119" fill="#ffffff"/></g><path stroke-width="1" stroke="#000000" d="M.0,6.0L12.0,6.0M6.0,.0L6.0,12.0" id="shape120" fill="none"/></g><path d="M.0,4.0C.0,1.8,1.8,.0,4.0,.0C6.2,.0,8.0,1.8,8.0,4.0C8.0,6.2,6.2,8.0,4.0,8.0C1.8,8.0,.0,6.2,.0,4.0z" transform="translate(356.00,62.00)" fill-rule="nonzero" id="shape121" fill="#000000"/><path stroke-width="1" stroke="#191919" d="M.0,.0L.0,31.0" transform="translate(360.00,66.00)" id="shape122" fill="none"/><g transform="translate(375.00,97.00)" id="group123"><g id="group124"><path stroke-width="1" d="M.0,6.0C.0,2.7,2.7,.0,6.0,.0C9.3,.0,12.0,2.7,12.0,6.0C12.0,9.3,9.3,12.0,6.0,12.0C2.7,12.0,.0,9.3,.0,6.0z" stroke="#000000" fill-rule="nonzero" id="shape125" fill="#ffffff"/></g><path stroke-width="1" stroke="#000000" d="M.0,6.0L12.0,6.0M6.0,.0L6.0,12.0" id="shape126" fill="none"/></g><path d="M.0,4.0C.0,1.8,1.8,.0,4.0,.0C6.2,.0,8.0,1.8,8.0,4.0C8.0,6.2,6.2,8.0,4.0,8.0C1.8,8.0,.0,6.2,.0,4.0z" transform="translate(377.00,137.00)" fill-rule="nonzero" id="shape127" fill="#000000"/><path stroke-width="1" stroke="#191919" d="M.0,.0L.0,32.0" transform="translate(381.00,109.00)" id="shape128" fill="none"/><g transform="translate(396.00,97.00)" id="group129"><g id="group130"><path stroke-width="1" d="M.0,6.0C.0,2.7,2.7,.0,6.0,.0C9.3,.0,12.0,2.7,12.0,6.0C12.0,9.3,9.3,12.0,6.0,12.0C2.7,12.0,.0,9.3,.0,6.0z" stroke="#000000" fill-rule="nonzero" id="shape131" fill="#ffffff"/></g><path stroke-width="1" stroke="#000000" d="M.0,6.0L12.0,6.0M6.0,.0L6.0,12.0" id="shape132" fill="none"/></g><path d="M.0,4.0C.0,1.8,1.8,.0,4.0,.0C6.2,.0,8.0,1.8,8.0,4.0C8.0,6.2,6.2,8.0,4.0,8.0C1.8,8.0,.0,6.2,.0,4.0z" transform="translate(398.00,156.00)" fill-rule="nonzero" id="shape133" fill="#000000"/><path stroke-width="1" stroke="#191919" d="M.0,.0L.0,51.0" transform="translate(402.00,109.00)" id="shape134" fill="none"/><g transform="translate(417.00,97.00)" id="group135"><g id="group136"><path stroke-width="1" d="M.0,6.0C.0,2.7,2.7,.0,6.0,.0C9.3,.0,12.0,2.7,12.0,6.0C12.0,9.3,9.3,12.0,6.0,12.0C2.7,12.0,.0,9.3,.0,6.0z" stroke="#000000" fill-rule="nonzero" id="shape137" fill="#ffffff"/></g><path stroke-width="1" stroke="#000000" d="M.0,6.0L12.0,6.0M6.0,.0L6.0,12.0" id="shape138" fill="none"/></g><path d="M.0,4.0C.0,1.8,1.8,.0,4.0,.0C6.2,.0,8.0,1.8,8.0,4.0C8.0,6.2,6.2,8.0,4.0,8.0C1.8,8.0,.0,6.2,.0,4.0z" transform="translate(419.00,175.00)" fill-rule="nonzero" id="shape139" fill="#000000"/><path stroke-width="1" stroke="#191919" d="M.0,.0L.0,70.0" transform="translate(423.00,109.00)" id="shape140" fill="none"/><g transform="translate(432.00,230.00)" id="group141"><g id="group142"><path stroke-width="1" d="M.0,6.0C.0,2.7,2.7,.0,6.0,.0C9.3,.0,12.0,2.7,12.0,6.0C12.0,9.3,9.3,12.0,6.0,12.0C2.7,12.0,.0,9.3,.0,6.0z" stroke="#000000" fill-rule="nonzero" id="shape143" fill="#ffffff"/></g><path stroke-width="1" stroke="#000000" d="M.0,6.0L12.0,6.0M6.0,.0L6.0,12.0" id="shape144" fill="none"/></g><path d="M.0,4.0C.0,1.8,1.8,.0,4.0,.0C6.2,.0,8.0,1.8,8.0,4.0C8.0,6.2,6.2,8.0,4.0,8.0C1.8,8.0,.0,6.2,.0,4.0z" transform="translate(434.00,175.00)" fill-rule="nonzero" id="shape145" fill="#000000"/><path d="M.0,4.0C.0,1.8,1.8,.0,4.0,.0C6.2,.0,8.0,1.8,8.0,4.0C8.0,6.2,6.2,8.0,4.0,8.0C1.8,8.0,.0,6.2,.0,4.0z" transform="translate(434.00,99.00)" fill-rule="nonzero" id="shape146" fill="#000000"/><path stroke-width="1" stroke="#191919" d="M.0,.0L.0,72.0" transform="translate(438.00,107.00)" id="shape147" fill="none"/><path stroke-width="1" stroke="#191919" d="M.0,.0L.0,51.0" transform="translate(438.00,179.00)" id="shape148" fill="none"/><g transform="translate(446.00,249.00)" id="group149"><g id="group150"><path stroke-width="1" d="M.0,6.0C.0,2.7,2.7,.0,6.0,.0C9.3,.0,12.0,2.7,12.0,6.0C12.0,9.3,9.3,12.0,6.0,12.0C2.7,12.0,.0,9.3,.0,6.0z" stroke="#000000" fill-rule="nonzero" id="shape151" fill="#ffffff"/></g><path stroke-width="1" stroke="#000000" d="M.0,6.0L12.0,6.0M6.0,.0L6.0,12.0" id="shape152" fill="none"/></g><path d="M.0,4.0C.0,1.8,1.8,.0,4.0,.0C6.2,.0,8.0,1.8,8.0,4.0C8.0,6.2,6.2,8.0,4.0,8.0C1.8,8.0,.0,6.2,.0,4.0z" transform="translate(448.00,231.00)" fill-rule="nonzero" id="shape153" fill="#000000"/><path stroke-width="1" stroke="#191919" d="M.0,.0L.0,-14.0" transform="translate(452.00,249.00)" id="shape154" fill="none"/><g transform="translate(467.00,78.00)" id="group155"><g id="group156"><path stroke-width="1" d="M.0,6.0C.0,2.7,2.7,.0,6.0,.0C9.3,.0,12.0,2.7,12.0,6.0C12.0,9.3,9.3,12.0,6.0,12.0C2.7,12.0,.0,9.3,.0,6.0z" stroke="#000000" fill-rule="nonzero" id="shape157" fill="#ffffff"/></g><path stroke-width="1" stroke="#000000" d="M.0,6.0L12.0,6.0M6.0,.0L6.0,12.0" id="shape158" fill="none"/></g><path d="M.0,4.0C.0,1.8,1.8,.0,4.0,.0C6.2,.0,8.0,1.8,8.0,4.0C8.0,6.2,6.2,8.0,4.0,8.0C1.8,8.0,.0,6.2,.0,4.0z" transform="translate(469.00,99.00)" fill-rule="nonzero" id="shape159" fill="#000000"/><path stroke-width="1" stroke="#191919" d="M.0,.0L.0,13.0" transform="translate(473.00,90.00)" id="shape160" fill="none"/><g transform="translate(485.00,78.00)" id="group161"><g id="group162"><path stroke-width="1" d="M.0,6.0C.0,2.7,2.7,.0,6.0,.0C9.3,.0,12.0,2.7,12.0,6.0C12.0,9.3,9.3,12.0,6.0,12.0C2.7,12.0,.0,9.3,.0,6.0z" stroke="#000000" fill-rule="nonzero" id="shape163" fill="#ffffff"/></g><path stroke-width="1" stroke="#000000" d="M.0,6.0L12.0,6.0M6.0,.0L6.0,12.0" id="shape164" fill="none"/></g><path d="M.0,4.0C.0,1.8,1.8,.0,4.0,.0C6.2,.0,8.0,1.8,8.0,4.0C8.0,6.2,6.2,8.0,4.0,8.0C1.8,8.0,.0,6.2,.0,4.0z" transform="translate(487.00,137.00)" fill-rule="nonzero" id="shape165" fill="#000000"/><path stroke-width="1" stroke="#191919" d="M.0,.0L.0,51.0" transform="translate(491.00,90.00)" id="shape166" fill="none"/><g transform="translate(503.00,78.00)" id="group167"><g id="group168"><path stroke-width="1" d="M.0,6.0C.0,2.7,2.7,.0,6.0,.0C9.3,.0,12.0,2.7,12.0,6.0C12.0,9.3,9.3,12.0,6.0,12.0C2.7,12.0,.0,9.3,.0,6.0z" stroke="#000000" fill-rule="nonzero" id="shape169" fill="#ffffff"/></g><path stroke-width="1" stroke="#000000" d="M.0,6.0L12.0,6.0M6.0,.0L6.0,12.0" id="shape170" fill="none"/></g><path d="M.0,4.0C.0,1.8,1.8,.0,4.0,.0C6.2,.0,8.0,1.8,8.0,4.0C8.0,6.2,6.2,8.0,4.0,8.0C1.8,8.0,.0,6.2,.0,4.0z" transform="translate(505.00,156.00)" fill-rule="nonzero" id="shape171" fill="#000000"/><path stroke-width="1" stroke="#191919" d="M.0,.0L.0,70.0" transform="translate(509.00,90.00)" id="shape172" fill="none"/><g transform="translate(521.00,78.00)" id="group173"><g id="group174"><path stroke-width="1" d="M.0,6.0C.0,2.7,2.7,.0,6.0,.0C9.3,.0,12.0,2.7,12.0,6.0C12.0,9.3,9.3,12.0,6.0,12.0C2.7,12.0,.0,9.3,.0,6.0z" stroke="#000000" fill-rule="nonzero" id="shape175" fill="#ffffff"/></g><path stroke-width="1" stroke="#000000" d="M.0,6.0L12.0,6.0M6.0,.0L6.0,12.0" id="shape176" fill="none"/></g><path d="M.0,4.0C.0,1.8,1.8,.0,4.0,.0C6.2,.0,8.0,1.8,8.0,4.0C8.0,6.2,6.2,8.0,4.0,8.0C1.8,8.0,.0,6.2,.0,4.0z" transform="translate(523.00,195.00)" fill-rule="nonzero" id="shape177" fill="#000000"/><path stroke-width="1" stroke="#191919" d="M.0,.0L.0,105.0" transform="translate(527.00,90.00)" id="shape178" fill="none"/><g transform="translate(538.00,60.00)" id="group179"><g id="group180"><path stroke-width="1" d="M.0,6.0C.0,2.7,2.7,.0,6.0,.0C9.3,.0,12.0,2.7,12.0,6.0C12.0,9.3,9.3,12.0,6.0,12.0C2.7,12.0,.0,9.3,.0,6.0z" stroke="#000000" fill-rule="nonzero" id="shape181" fill="#ffffff"/></g><path stroke-width="1" stroke="#000000" d="M.0,6.0L12.0,6.0M6.0,.0L6.0,12.0" id="shape182" fill="none"/></g><path d="M.0,4.0C.0,1.8,1.8,.0,4.0,.0C6.2,.0,8.0,1.8,8.0,4.0C8.0,6.2,6.2,8.0,4.0,8.0C1.8,8.0,.0,6.2,.0,4.0z" transform="translate(540.00,80.00)" fill-rule="nonzero" id="shape183" fill="#000000"/><path stroke-width="1" stroke="#191919" d="M.0,.0L.0,12.0" transform="translate(544.00,72.00)" id="shape184" fill="none"/><g transform="translate(558.00,60.00)" id="group185"><g id="group186"><path stroke-width="1" d="M.0,6.0C.0,2.7,2.7,.0,6.0,.0C9.3,.0,12.0,2.7,12.0,6.0C12.0,9.3,9.3,12.0,6.0,12.0C2.7,12.0,.0,9.3,.0,6.0z" stroke="#000000" fill-rule="nonzero" id="shape187" fill="#ffffff"/></g><path stroke-width="1" stroke="#000000" d="M.0,6.0L12.0,6.0M6.0,.0L6.0,12.0" id="shape188" fill="none"/></g><path d="M.0,4.0C.0,1.8,1.8,.0,4.0,.0C6.2,.0,8.0,1.8,8.0,4.0C8.0,6.2,6.2,8.0,4.0,8.0C1.8,8.0,.0,6.2,.0,4.0z" transform="translate(560.00,175.00)" fill-rule="nonzero" id="shape189" fill="#000000"/><path stroke-width="1" stroke="#191919" d="M.0,.0L.0,107.0" transform="translate(564.00,72.00)" id="shape190" fill="none"/><g transform="translate(576.00,230.00)" id="group191"><g id="group192"><path stroke-width="1" d="M.0,6.0C.0,2.7,2.7,.0,6.0,.0C9.3,.0,12.0,2.7,12.0,6.0C12.0,9.3,9.3,12.0,6.0,12.0C2.7,12.0,.0,9.3,.0,6.0z" stroke="#000000" fill-rule="nonzero" id="shape193" fill="#ffffff"/></g><path stroke-width="1" stroke="#000000" d="M.0,6.0L12.0,6.0M6.0,.0L6.0,12.0" id="shape194" fill="none"/></g><path d="M.0,4.0C.0,1.8,1.8,.0,4.0,.0C6.2,.0,8.0,1.8,8.0,4.0C8.0,6.2,6.2,8.0,4.0,8.0C1.8,8.0,.0,6.2,.0,4.0z" transform="translate(578.00,80.00)" fill-rule="nonzero" id="shape195" fill="#000000"/><path d="M.0,4.0C.0,1.8,1.8,.0,4.0,.0C6.2,.0,8.0,1.8,8.0,4.0C8.0,6.2,6.2,8.0,4.0,8.0C1.8,8.0,.0,6.2,.0,4.0z" transform="translate(578.00,62.00)" fill-rule="nonzero" id="shape196" fill="#000000"/><path stroke-width="1" stroke="#191919" d="M.0,.0L.0,18.0" transform="translate(582.00,66.00)" id="shape197" fill="none"/><path stroke-width="1" stroke="#191919" d="M.0,.0L.0,146.0" transform="translate(582.00,84.00)" id="shape198" fill="none"/><g transform="translate(597.00,173.00)" id="group199"><g id="group200"><path stroke-width="1" d="M.0,6.0C.0,2.7,2.7,.0,6.0,.0C9.3,.0,12.0,2.7,12.0,6.0C12.0,9.3,9.3,12.0,6.0,12.0C2.7,12.0,.0,9.3,.0,6.0z" stroke="#000000" fill-rule="nonzero" id="shape201" fill="#ffffff"/></g><path stroke-width="1" stroke="#000000" d="M.0,6.0L12.0,6.0M6.0,.0L6.0,12.0" id="shape202" fill="none"/></g><path d="M.0,4.0C.0,1.8,1.8,.0,4.0,.0C6.2,.0,8.0,1.8,8.0,4.0C8.0,6.2,6.2,8.0,4.0,8.0C1.8,8.0,.0,6.2,.0,4.0z" transform="translate(599.00,80.00)" fill-rule="nonzero" id="shape203" fill="#000000"/><path stroke-width="1" stroke="#191919" d="M.0,.0L.0,89.0" transform="translate(603.00,84.00)" id="shape204" fill="none"/><g transform="translate(614.00,97.00)" id="group205"><g id="group206"><path stroke-width="1" d="M.0,6.0C.0,2.7,2.7,.0,6.0,.0C9.3,.0,12.0,2.7,12.0,6.0C12.0,9.3,9.3,12.0,6.0,12.0C2.7,12.0,.0,9.3,.0,6.0z" stroke="#000000" fill-rule="nonzero" id="shape207" fill="#ffffff"/></g><path stroke-width="1" stroke="#000000" d="M.0,6.0L12.0,6.0M6.0,.0L6.0,12.0" id="shape208" fill="none"/></g><path d="M.0,4.0C.0,1.8,1.8,.0,4.0,.0C6.2,.0,8.0,1.8,8.0,4.0C8.0,6.2,6.2,8.0,4.0,8.0C1.8,8.0,.0,6.2,.0,4.0z" transform="translate(616.00,62.00)" fill-rule="nonzero" id="shape209" fill="#000000"/><path stroke-width="1" stroke="#191919" d="M.0,.0L.0,27.0" transform="translate(620.00,70.00)" id="shape210" fill="none"/><g transform="translate(626.00,249.00)" id="group211"><g id="group212"><path stroke-width="1" d="M.0,6.0C.0,2.7,2.7,.0,6.0,.0C9.3,.0,12.0,2.7,12.0,6.0C12.0,9.3,9.3,12.0,6.0,12.0C2.7,12.0,.0,9.3,.0,6.0z" stroke="#000000" fill-rule="nonzero" id="shape213" fill="#ffffff"/></g><path stroke-width="1" stroke="#000000" d="M.0,6.0L12.0,6.0M6.0,.0L6.0,12.0" id="shape214" fill="none"/></g><path d="M.0,4.0C.0,1.8,1.8,.0,4.0,.0C6.2,.0,8.0,1.8,8.0,4.0C8.0,6.2,6.2,8.0,4.0,8.0C1.8,8.0,.0,6.2,.0,4.0z" transform="translate(628.00,99.00)" fill-rule="nonzero" id="shape215" fill="#000000"/><path d="M.0,4.0C.0,1.8,1.8,.0,4.0,.0C6.2,.0,8.0,1.8,8.0,4.0C8.0,6.2,6.2,8.0,4.0,8.0C1.8,8.0,.0,6.2,.0,4.0z" transform="translate(628.00,175.00)" fill-rule="nonzero" id="shape216" fill="#000000"/><path stroke-width="1" stroke="#191919" d="M.0,.0L.0,76.0" transform="translate(632.00,103.00)" id="shape217" fill="none"/><path stroke-width="1" stroke="#191919" d="M.0,.0L.0,70.0" transform="translate(632.00,179.00)" id="shape218" fill="none"/><g transform="translate(641.00,116.00)" id="group219"><g id="group220"><path stroke-width="1" d="M.0,6.0C.0,2.7,2.7,.0,6.0,.0C9.3,.0,12.0,2.7,12.0,6.0C12.0,9.3,9.3,12.0,6.0,12.0C2.7,12.0,.0,9.3,.0,6.0z" stroke="#000000" fill-rule="nonzero" id="shape221" fill="#ffffff"/></g><path stroke-width="1" stroke="#000000" d="M.0,6.0L12.0,6.0M6.0,.0L6.0,12.0" id="shape222" fill="none"/></g><path d="M.0,4.0C.0,1.8,1.8,.0,4.0,.0C6.2,.0,8.0,1.8,8.0,4.0C8.0,6.2,6.2,8.0,4.0,8.0C1.8,8.0,.0,6.2,.0,4.0z" transform="translate(643.00,175.00)" fill-rule="nonzero" id="shape223" fill="#000000"/><path stroke-width="1" stroke="#191919" d="M.0,.0L.0,51.0" transform="translate(647.00,128.00)" id="shape224" fill="none"/><g transform="translate(659.00,97.00)" id="group225"><g id="group226"><path stroke-width="1" d="M.0,6.0C.0,2.7,2.7,.0,6.0,.0C9.3,.0,12.0,2.7,12.0,6.0C12.0,9.3,9.3,12.0,6.0,12.0C2.7,12.0,.0,9.3,.0,6.0z" stroke="#000000" fill-rule="nonzero" id="shape227" fill="#ffffff"/></g><path stroke-width="1" stroke="#000000" d="M.0,6.0L12.0,6.0M6.0,.0L6.0,12.0" id="shape228" fill="none"/></g><path d="M.0,4.0C.0,1.8,1.8,.0,4.0,.0C6.2,.0,8.0,1.8,8.0,4.0C8.0,6.2,6.2,8.0,4.0,8.0C1.8,8.0,.0,6.2,.0,4.0z" transform="translate(661.00,193.00)" fill-rule="nonzero" id="shape229" fill="#000000"/><path stroke-width="1" stroke="#191919" d="M.0,.0L.0,88.0" transform="translate(665.00,109.00)" id="shape230" fill="none"/><g transform="translate(679.00,267.00)" id="group231"><g id="group232"><path stroke-width="1" d="M.0,6.0C.0,2.7,2.7,.0,6.0,.0C9.3,.0,12.0,2.7,12.0,6.0C12.0,9.3,9.3,12.0,6.0,12.0C2.7,12.0,.0,9.3,.0,6.0z" stroke="#000000" fill-rule="nonzero" id="shape233" fill="#ffffff"/></g><path stroke-width="1" stroke="#000000" d="M.0,6.0L12.0,6.0M6.0,.0L6.0,12.0" id="shape234" fill="none"/></g><path d="M.0,4.0C.0,1.8,1.8,.0,4.0,.0C6.2,.0,8.0,1.8,8.0,4.0C8.0,6.2,6.2,8.0,4.0,8.0C1.8,8.0,.0,6.2,.0,4.0z" transform="translate(681.00,99.00)" fill-rule="nonzero" id="shape235" fill="#000000"/><path d="M.0,4.0C.0,1.8,1.8,.0,4.0,.0C6.2,.0,8.0,1.8,8.0,4.0C8.0,6.2,6.2,8.0,4.0,8.0C1.8,8.0,.0,6.2,.0,4.0z" transform="translate(681.00,120.00)" fill-rule="nonzero" id="shape236" fill="#000000"/><path stroke-width="1" stroke="#191919" d="M.0,.0L.0,-143.0" transform="translate(685.00,267.00)" id="shape237" fill="none"/><path stroke-width="1" stroke="#191919" d="M.0,.0L.0,21.0" transform="translate(685.00,103.00)" id="shape238" fill="none"/><g transform="translate(695.00,286.00)" id="group239"><g id="group240"><path stroke-width="1" d="M.0,6.0C.0,2.7,2.7,.0,6.0,.0C9.3,.0,12.0,2.7,12.0,6.0C12.0,9.3,9.3,12.0,6.0,12.0C2.7,12.0,.0,9.3,.0,6.0z" stroke="#000000" fill-rule="nonzero" id="shape241" fill="#ffffff"/></g><path stroke-width="1" stroke="#000000" d="M.0,6.0L12.0,6.0M6.0,.0L6.0,12.0" id="shape242" fill="none"/></g><path d="M.0,4.0C.0,1.8,1.8,.0,4.0,.0C6.2,.0,8.0,1.8,8.0,4.0C8.0,6.2,6.2,8.0,4.0,8.0C1.8,8.0,.0,6.2,.0,4.0z" transform="translate(697.00,269.00)" fill-rule="nonzero" id="shape243" fill="#000000"/><path stroke-width="1" stroke="#191919" d="M.0,.0L.0,-13.0" transform="translate(701.00,286.00)" id="shape244" fill="none"/><g transform="translate(712.00,173.00)" id="group245"><g id="group246"><path stroke-width="1" d="M.0,6.0C.0,2.7,2.7,.0,6.0,.0C9.3,.0,12.0,2.7,12.0,6.0C12.0,9.3,9.3,12.0,6.0,12.0C2.7,12.0,.0,9.3,.0,6.0z" stroke="#000000" fill-rule="nonzero" id="shape247" fill="#ffffff"/></g><path stroke-width="1" stroke="#000000" d="M.0,6.0L12.0,6.0M6.0,.0L6.0,12.0" id="shape248" fill="none"/></g><path d="M.0,4.0C.0,1.8,1.8,.0,4.0,.0C6.2,.0,8.0,1.8,8.0,4.0C8.0,6.2,6.2,8.0,4.0,8.0C1.8,8.0,.0,6.2,.0,4.0z" transform="translate(735.00,80.00)" fill-rule="nonzero" id="shape249" fill="#000000"/><path d="M.0,4.0C.0,1.8,1.8,.0,4.0,.0C6.2,.0,8.0,1.8,8.0,4.0C8.0,6.2,6.2,8.0,4.0,8.0C1.8,8.0,.0,6.2,.0,4.0z" transform="translate(714.00,156.00)" fill-rule="nonzero" id="shape250" fill="#000000"/><g transform="translate(733.00,173.00)" id="group251"><g id="group252"><path stroke-width="1" d="M.0,6.0C.0,2.7,2.7,.0,6.0,.0C9.3,.0,12.0,2.7,12.0,6.0C12.0,9.3,9.3,12.0,6.0,12.0C2.7,12.0,.0,9.3,.0,6.0z" stroke="#000000" fill-rule="nonzero" id="shape253" fill="#ffffff"/></g><path stroke-width="1" stroke="#000000" d="M.0,6.0L12.0,6.0M6.0,.0L6.0,12.0" id="shape254" fill="none"/></g><path stroke-width="1" stroke="#191919" d="M.0,.0L.0,13.0" transform="translate(718.00,160.00)" id="shape255" fill="none"/><path stroke-width="1" stroke="#191919" d="M.0,.0L.0,89.0" transform="translate(739.00,84.00)" id="shape256" fill="none"/><g transform="translate(748.00,60.00)" id="group257"><g id="group258"><path stroke-width="1" d="M.0,6.0C.0,2.7,2.7,.0,6.0,.0C9.3,.0,12.0,2.7,12.0,6.0C12.0,9.3,9.3,12.0,6.0,12.0C2.7,12.0,.0,9.3,.0,6.0z" stroke="#000000" fill-rule="nonzero" id="shape259" fill="#ffffff"/></g><path stroke-width="1" stroke="#000000" d="M.0,6.0L12.0,6.0M6.0,.0L6.0,12.0" id="shape260" fill="none"/></g><path d="M.0,4.0C.0,1.8,1.8,.0,4.0,.0C6.2,.0,8.0,1.8,8.0,4.0C8.0,6.2,6.2,8.0,4.0,8.0C1.8,8.0,.0,6.2,.0,4.0z" transform="translate(750.00,99.00)" fill-rule="nonzero" id="shape261" fill="#000000"/><path stroke-width="1" stroke="#191919" d="M.0,.0L.0,31.0" transform="translate(754.00,72.00)" id="shape262" fill="none"/><g transform="translate(765.00,60.00)" id="group263"><g id="group264"><path stroke-width="1" d="M.0,6.0C.0,2.7,2.7,.0,6.0,.0C9.3,.0,12.0,2.7,12.0,6.0C12.0,9.3,9.3,12.0,6.0,12.0C2.7,12.0,.0,9.3,.0,6.0z" stroke="#000000" fill-rule="nonzero" id="shape265" fill="#ffffff"/></g><path stroke-width="1" stroke="#000000" d="M.0,6.0L12.0,6.0M6.0,.0L6.0,12.0" id="shape266" fill="none"/></g><path d="M.0,4.0C.0,1.8,1.8,.0,4.0,.0C6.2,.0,8.0,1.8,8.0,4.0C8.0,6.2,6.2,8.0,4.0,8.0C1.8,8.0,.0,6.2,.0,4.0z" transform="translate(767.00,137.00)" fill-rule="nonzero" id="shape267" fill="#000000"/><path stroke-width="1" stroke="#191919" d="M.0,.0L.0,65.0" transform="translate(771.00,72.00)" id="shape268" fill="none"/><g transform="translate(780.00,267.00)" id="group269"><g id="group270"><path stroke-width="1" d="M.0,6.0C.0,2.7,2.7,.0,6.0,.0C9.3,.0,12.0,2.7,12.0,6.0C12.0,9.3,9.3,12.0,6.0,12.0C2.7,12.0,.0,9.3,.0,6.0z" stroke="#000000" fill-rule="nonzero" id="shape271" fill="#ffffff"/></g><path stroke-width="1" stroke="#000000" d="M.0,6.0L12.0,6.0M6.0,.0L6.0,12.0" id="shape272" fill="none"/></g><path d="M.0,4.0C.0,1.8,1.8,.0,4.0,.0C6.2,.0,8.0,1.8,8.0,4.0C8.0,6.2,6.2,8.0,4.0,8.0C1.8,8.0,.0,6.2,.0,4.0z" transform="translate(782.00,175.00)" fill-rule="nonzero" id="shape273" fill="#000000"/><path d="M.0,4.0C.0,1.8,1.8,.0,4.0,.0C6.2,.0,8.0,1.8,8.0,4.0C8.0,6.2,6.2,8.0,4.0,8.0C1.8,8.0,.0,6.2,.0,4.0z" transform="translate(782.00,62.00)" fill-rule="nonzero" id="shape274" fill="#000000"/><path stroke-width="1" stroke="#191919" d="M.0,.0L.0,113.0" transform="translate(786.00,66.00)" id="shape275" fill="none"/><path stroke-width="1" stroke="#191919" d="M.0,.0L.0,88.0" transform="translate(786.00,179.00)" id="shape276" fill="none"/><g transform="translate(800.00,116.00)" id="group277"><g id="group278"><path stroke-width="1" d="M.0,6.0C.0,2.7,2.7,.0,6.0,.0C9.3,.0,12.0,2.7,12.0,6.0C12.0,9.3,9.3,12.0,6.0,12.0C2.7,12.0,.0,9.3,.0,6.0z" stroke="#000000" fill-rule="nonzero" id="shape279" fill="#ffffff"/></g><path stroke-width="1" stroke="#000000" d="M.0,6.0L12.0,6.0M6.0,.0L6.0,12.0" id="shape280" fill="none"/></g><path d="M.0,4.0C.0,1.8,1.8,.0,4.0,.0C6.2,.0,8.0,1.8,8.0,4.0C8.0,6.2,6.2,8.0,4.0,8.0C1.8,8.0,.0,6.2,.0,4.0z" transform="translate(802.00,175.00)" fill-rule="nonzero" id="shape281" fill="#000000"/><path stroke-width="1" stroke="#191919" d="M.0,.0L.0,51.0" transform="translate(806.00,128.00)" id="shape282" fill="none"/><g transform="translate(813.00,60.00)" id="group283"><g id="group284"><path stroke-width="1" d="M.0,6.0C.0,2.7,2.7,.0,6.0,.0C9.3,.0,12.0,2.7,12.0,6.0C12.0,9.3,9.3,12.0,6.0,12.0C2.7,12.0,.0,9.3,.0,6.0z" stroke="#000000" fill-rule="nonzero" id="shape285" fill="#ffffff"/></g><path stroke-width="1" stroke="#000000" d="M.0,6.0L12.0,6.0M6.0,.0L6.0,12.0" id="shape286" fill="none"/></g><path d="M.0,4.0C.0,1.8,1.8,.0,4.0,.0C6.2,.0,8.0,1.8,8.0,4.0C8.0,6.2,6.2,8.0,4.0,8.0C1.8,8.0,.0,6.2,.0,4.0z" transform="translate(815.00,99.00)" fill-rule="nonzero" id="shape287" fill="#000000"/><path stroke-width="1" stroke="#191919" d="M.0,.0L.0,31.0" transform="translate(819.00,72.00)" id="shape288" fill="none"/><g transform="translate(827.00,286.00)" id="group289"><g id="group290"><path stroke-width="1" d="M.0,6.0C.0,2.7,2.7,.0,6.0,.0C9.3,.0,12.0,2.7,12.0,6.0C12.0,9.3,9.3,12.0,6.0,12.0C2.7,12.0,.0,9.3,.0,6.0z" stroke="#000000" fill-rule="nonzero" id="shape291" fill="#ffffff"/></g><path stroke-width="1" stroke="#000000" d="M.0,6.0L12.0,6.0M6.0,.0L6.0,12.0" id="shape292" fill="none"/></g><path d="M.0,4.0C.0,1.8,1.8,.0,4.0,.0C6.2,.0,8.0,1.8,8.0,4.0C8.0,6.2,6.2,8.0,4.0,8.0C1.8,8.0,.0,6.2,.0,4.0z" transform="translate(829.00,62.00)" fill-rule="nonzero" id="shape293" fill="#000000"/><path d="M.0,4.0C.0,1.8,1.8,.0,4.0,.0C6.2,.0,8.0,1.8,8.0,4.0C8.0,6.2,6.2,8.0,4.0,8.0C1.8,8.0,.0,6.2,.0,4.0z" transform="translate(829.00,118.00)" fill-rule="nonzero" id="shape294" fill="#000000"/><path stroke-width="1" stroke="#191919" d="M.0,.0L.0,56.0" transform="translate(833.00,66.00)" id="shape295" fill="none"/><path stroke-width="1" stroke="#191919" d="M.0,.0L.0,164.0" transform="translate(833.00,122.00)" id="shape296" fill="none"/><g transform="translate(844.00,230.00)" id="group297"><g id="group298"><path stroke-width="1" d="M.0,6.0C.0,2.7,2.7,.0,6.0,.0C9.3,.0,12.0,2.7,12.0,6.0C12.0,9.3,9.3,12.0,6.0,12.0C2.7,12.0,.0,9.3,.0,6.0z" stroke="#000000" fill-rule="nonzero" id="shape299" fill="#ffffff"/></g><path stroke-width="1" stroke="#000000" d="M.0,6.0L12.0,6.0M6.0,.0L6.0,12.0" id="shape300" fill="none"/></g><path d="M.0,4.0C.0,1.8,1.8,.0,4.0,.0C6.2,.0,8.0,1.8,8.0,4.0C8.0,6.2,6.2,8.0,4.0,8.0C1.8,8.0,.0,6.2,.0,4.0z" transform="translate(846.00,269.00)" fill-rule="nonzero" id="shape301" fill="#000000"/><path stroke-width="1" stroke="#191919" d="M.0,.0L.0,-31.0" transform="translate(850.00,273.00)" id="shape302" fill="none"/><g transform="translate(860.00,116.00)" id="group303"><g id="group304"><path stroke-width="1" d="M.0,6.0C.0,2.7,2.7,.0,6.0,.0C9.3,.0,12.0,2.7,12.0,6.0C12.0,9.3,9.3,12.0,6.0,12.0C2.7,12.0,.0,9.3,.0,6.0z" stroke="#000000" fill-rule="nonzero" id="shape305" fill="#ffffff"/></g><path stroke-width="1" stroke="#000000" d="M.0,6.0L12.0,6.0M6.0,.0L6.0,12.0" id="shape306" fill="none"/></g><path d="M.0,4.0C.0,1.8,1.8,.0,4.0,.0C6.2,.0,8.0,1.8,8.0,4.0C8.0,6.2,6.2,8.0,4.0,8.0C1.8,8.0,.0,6.2,.0,4.0z" transform="translate(862.00,80.00)" fill-rule="nonzero" id="shape307" fill="#000000"/><path stroke-width="1" stroke="#191919" d="M.0,.0L.0,32.0" transform="translate(866.00,84.00)" id="shape308" fill="none"/><g transform="translate(877.00,135.00)" id="group309"><g id="group310"><path stroke-width="1" d="M.0,6.0C.0,2.7,2.7,.0,6.0,.0C9.3,.0,12.0,2.7,12.0,6.0C12.0,9.3,9.3,12.0,6.0,12.0C2.7,12.0,.0,9.3,.0,6.0z" stroke="#000000" fill-rule="nonzero" id="shape311" fill="#ffffff"/></g><path stroke-width="1" stroke="#000000" d="M.0,6.0L12.0,6.0M6.0,.0L6.0,12.0" id="shape312" fill="none"/></g><path d="M.0,4.0C.0,1.8,1.8,.0,4.0,.0C6.2,.0,8.0,1.8,8.0,4.0C8.0,6.2,6.2,8.0,4.0,8.0C1.8,8.0,.0,6.2,.0,4.0z" transform="translate(879.00,193.00)" fill-rule="nonzero" id="shape313" fill="#000000"/><path stroke-width="1" stroke="#191919" d="M.0,.0L.0,50.0" transform="translate(883.00,147.00)" id="shape314" fill="none"/><g transform="translate(892.00,305.00)" id="group315"><g id="group316"><path stroke-width="1" d="M.0,6.0C.0,2.7,2.7,.0,6.0,.0C9.3,.0,12.0,2.7,12.0,6.0C12.0,9.3,9.3,12.0,6.0,12.0C2.7,12.0,.0,9.3,.0,6.0z" stroke="#000000" fill-rule="nonzero" id="shape317" fill="#ffffff"/></g><path stroke-width="1" stroke="#000000" d="M.0,6.0L12.0,6.0M6.0,.0L6.0,12.0" id="shape318" fill="none"/></g><path d="M.0,4.0C.0,1.8,1.8,.0,4.0,.0C6.2,.0,8.0,1.8,8.0,4.0C8.0,6.2,6.2,8.0,4.0,8.0C1.8,8.0,.0,6.2,.0,4.0z" transform="translate(894.00,118.00)" fill-rule="nonzero" id="shape319" fill="#000000"/><path d="M.0,4.0C.0,1.8,1.8,.0,4.0,.0C6.2,.0,8.0,1.8,8.0,4.0C8.0,6.2,6.2,8.0,4.0,8.0C1.8,8.0,.0,6.2,.0,4.0z" transform="translate(894.00,137.00)" fill-rule="nonzero" id="shape320" fill="#000000"/><path stroke-width="1" stroke="#191919" d="M.0,.0L.0,19.0" transform="translate(898.00,122.00)" id="shape321" fill="none"/><path stroke-width="1" stroke="#191919" d="M.0,.0L.0,164.0" transform="translate(898.00,141.00)" id="shape322" fill="none"/><g transform="translate(908.00,267.00)" id="group323"><g id="group324"><path stroke-width="1" d="M.0,6.0C.0,2.7,2.7,.0,6.0,.0C9.3,.0,12.0,2.7,12.0,6.0C12.0,9.3,9.3,12.0,6.0,12.0C2.7,12.0,.0,9.3,.0,6.0z" stroke="#000000" fill-rule="nonzero" id="shape325" fill="#ffffff"/></g><path stroke-width="1" stroke="#000000" d="M.0,6.0L12.0,6.0M6.0,.0L6.0,12.0" id="shape326" fill="none"/></g><path d="M.0,4.0C.0,1.8,1.8,.0,4.0,.0C6.2,.0,8.0,1.8,8.0,4.0C8.0,6.2,6.2,8.0,4.0,8.0C1.8,8.0,.0,6.2,.0,4.0z" transform="translate(910.00,307.00)" fill-rule="nonzero" id="shape327" fill="#000000"/><path stroke-width="1" stroke="#191919" d="M.0,.0L.0,32.0" transform="translate(914.00,279.00)" id="shape328" fill="none"/><g transform="translate(924.00,211.00)" id="group329"><g id="group330"><path stroke-width="1" d="M.0,6.0C.0,2.7,2.7,.0,6.0,.0C9.3,.0,12.0,2.7,12.0,6.0C12.0,9.3,9.3,12.0,6.0,12.0C2.7,12.0,.0,9.3,.0,6.0z" stroke="#000000" fill-rule="nonzero" id="shape331" fill="#ffffff"/></g><path stroke-width="1" stroke="#000000" d="M.0,6.0L12.0,6.0M6.0,.0L6.0,12.0" id="shape332" fill="none"/></g><path d="M.0,4.0C.0,1.8,1.8,.0,4.0,.0C6.2,.0,8.0,1.8,8.0,4.0C8.0,6.2,6.2,8.0,4.0,8.0C1.8,8.0,.0,6.2,.0,4.0z" transform="translate(926.00,288.00)" fill-rule="nonzero" id="shape333" fill="#000000"/><path stroke-width="1" stroke="#191919" d="M.0,.0L.0,69.0" transform="translate(930.00,223.00)" id="shape334" fill="none"/><g transform="translate(943.00,286.00)" id="group335"><g id="group336"><path stroke-width="1" d="M.0,6.0C.0,2.7,2.7,.0,6.0,.0C9.3,.0,12.0,2.7,12.0,6.0C12.0,9.3,9.3,12.0,6.0,12.0C2.7,12.0,.0,9.3,.0,6.0z" stroke="#000000" fill-rule="nonzero" id="shape337" fill="#ffffff"/></g><path stroke-width="1" stroke="#000000" d="M.0,6.0L12.0,6.0M6.0,.0L6.0,12.0" id="shape338" fill="none"/></g><path d="M.0,4.0C.0,1.8,1.8,.0,4.0,.0C6.2,.0,8.0,1.8,8.0,4.0C8.0,6.2,6.2,8.0,4.0,8.0C1.8,8.0,.0,6.2,.0,4.0z" transform="translate(945.00,251.00)" fill-rule="nonzero" id="shape339" fill="#000000"/><path stroke-width="1" stroke="#191919" d="M.0,.0L.0,31.0" transform="translate(949.00,255.00)" id="shape340" fill="none"/><g transform="translate(956.00,173.00)" id="group341"><g id="group342"><path stroke-width="1" d="M.0,6.0C.0,2.7,2.7,.0,6.0,.0C9.3,.0,12.0,2.7,12.0,6.0C12.0,9.3,9.3,12.0,6.0,12.0C2.7,12.0,.0,9.3,.0,6.0z" stroke="#000000" fill-rule="nonzero" id="shape343" fill="#ffffff"/></g><path stroke-width="1" stroke="#000000" d="M.0,6.0L12.0,6.0M6.0,.0L6.0,12.0" id="shape344" fill="none"/></g><g transform="translate(977.00,173.00)" id="group345"><g id="group346"><path stroke-width="1" d="M.0,6.0C.0,2.7,2.7,.0,6.0,.0C9.3,.0,12.0,2.7,12.0,6.0C12.0,9.3,9.3,12.0,6.0,12.0C2.7,12.0,.0,9.3,.0,6.0z" stroke="#000000" fill-rule="nonzero" id="shape347" fill="#ffffff"/></g><path stroke-width="1" stroke="#000000" d="M.0,6.0L12.0,6.0M6.0,.0L6.0,12.0" id="shape348" fill="none"/></g><g transform="translate(998.00,173.00)" id="group349"><g id="group350"><path stroke-width="1" d="M.0,6.0C.0,2.7,2.7,.0,6.0,.0C9.3,.0,12.0,2.7,12.0,6.0C12.0,9.3,9.3,12.0,6.0,12.0C2.7,12.0,.0,9.3,.0,6.0z" stroke="#000000" fill-rule="nonzero" id="shape351" fill="#ffffff"/></g><path stroke-width="1" stroke="#000000" d="M.0,6.0L12.0,6.0M6.0,.0L6.0,12.0" id="shape352" fill="none"/></g><path d="M.0,4.0C.0,1.8,1.8,.0,4.0,.0C6.2,.0,8.0,1.8,8.0,4.0C8.0,6.2,6.2,8.0,4.0,8.0C1.8,8.0,.0,6.2,.0,4.0z" transform="translate(958.00,80.00)" fill-rule="nonzero" id="shape353" fill="#000000"/><path d="M.0,4.0C.0,1.8,1.8,.0,4.0,.0C6.2,.0,8.0,1.8,8.0,4.0C8.0,6.2,6.2,8.0,4.0,8.0C1.8,8.0,.0,6.2,.0,4.0z" transform="translate(979.00,99.00)" fill-rule="nonzero" id="shape354" fill="#000000"/><path d="M.0,4.0C.0,1.8,1.8,.0,4.0,.0C6.2,.0,8.0,1.8,8.0,4.0C8.0,6.2,6.2,8.0,4.0,8.0C1.8,8.0,.0,6.2,.0,4.0z" transform="translate(1000.00,118.00)" fill-rule="nonzero" id="shape355" fill="#000000"/><path stroke-width="1" stroke="#191919" d="M.0,.0L.0,89.0" transform="translate(962.00,84.00)" id="shape356" fill="none"/><path stroke-width="1" stroke="#191919" d="M.0,.0L.0,70.0" transform="translate(983.00,103.00)" id="shape357" fill="none"/><path stroke-width="1" stroke="#191919" d="M.0,.0L.0,51.0" transform="translate(1004.00,122.00)" id="shape358" fill="none"/><g transform="translate(1014.00,267.00)" id="group359"><g id="group360"><path stroke-width="1" d="M.0,6.0C.0,2.7,2.7,.0,6.0,.0C9.3,.0,12.0,2.7,12.0,6.0C12.0,9.3,9.3,12.0,6.0,12.0C2.7,12.0,.0,9.3,.0,6.0z" stroke="#000000" fill-rule="nonzero" id="shape361" fill="#ffffff"/></g><path stroke-width="1" stroke="#000000" d="M.0,6.0L12.0,6.0M6.0,.0L6.0,12.0" id="shape362" fill="none"/></g><path d="M.0,4.0C.0,1.8,1.8,.0,4.0,.0C6.2,.0,8.0,1.8,8.0,4.0C8.0,6.2,6.2,8.0,4.0,8.0C1.8,8.0,.0,6.2,.0,4.0z" transform="translate(1016.00,175.00)" fill-rule="nonzero" id="shape363" fill="#000000"/><path stroke-width="1" stroke="#191919" d="M.0,.0L.0,84.0" transform="translate(1020.00,183.00)" id="shape364" fill="none"/><g transform="translate(39.50,430.34)" id="group365"><path stroke-width="1.666669964790344" stroke="#191919" d="M.0,.0L982.0,.0" transform="translate(42.50,9.00)" id="shape366" fill="none"/><path stroke-width="1.666669964790344" stroke="#191919" d="M.0,.0L982.0,.0" transform="translate(42.50,27.00)" id="shape367" fill="none"/><path stroke-width="1.666669964790344" stroke="#191919" d="M.0,.0L982.0,.0" transform="translate(42.50,46.00)" id="shape368" fill="none"/><path stroke-width="1.666669964790344" stroke="#191919" d="M.0,.0L982.0,.0" transform="translate(42.50,65.00)" id="shape369" fill="none"/><path stroke-width="1.666669964790344" stroke="#191919" d="M.0,.0L982.0,.0" transform="translate(42.50,84.00)" id="shape370" fill="none"/><path stroke-width="1.666669964790344" stroke="#191919" d="M.0,.0L982.0,.0" transform="translate(42.50,103.00)" id="shape371" fill="none"/><path stroke-width="1.666669964790344" stroke="#191919" d="M.0,.0L982.0,.0" transform="translate(42.50,122.00)" id="shape372" fill="none"/><path stroke-width="1.666669964790344" stroke="#191919" d="M.0,.0L982.0,.0" transform="translate(42.50,141.00)" id="shape373" fill="none"/><path stroke-width="1.666669964790344" stroke="#191919" d="M.0,.0L982.0,.0" transform="translate(42.50,179.00)" id="shape374" fill="none"/><path stroke-width="1.666669964790344" stroke="#191919" d="M.0,.0L982.0,.0" transform="translate(42.50,160.00)" id="shape375" fill="none"/><path stroke-width="1.666669964790344" stroke="#191919" d="M.0,.0L982.0,.0" transform="translate(42.50,198.00)" id="shape376" fill="none"/><path stroke-width="1.666669964790344" stroke="#191919" d="M.0,.0L982.0,.0" transform="translate(42.50,216.00)" id="shape377" fill="none"/><path stroke-width="1.666669964790344" stroke="#191919" d="M.0,.0L982.0,.0" transform="translate(42.50,235.00)" id="shape378" fill="none"/><path stroke-width="1.666669964790344" stroke="#191919" d="M.0,.0L982.0,.0" transform="translate(42.50,254.00)" id="shape379" fill="none"/><path stroke-width="1.666669964790344" stroke="#191919" d="M.0,.0L982.0,.0" transform="translate(42.50,273.00)" id="shape380" fill="none"/><path stroke-width="1.666669964790344" stroke="#191919" d="M.0,.0L982.0,.0" transform="translate(42.50,292.00)" id="shape381" fill="none"/><path stroke-width="1.666669964790344" stroke="#191919" d="M.0,.0L982.0,.0" transform="translate(42.50,311.00)" id="shape382" fill="none"/><path stroke-width="1.666669964790344" stroke="#191919" d="M.0,.0L982.0,.0" transform="translate(42.50,330.00)" id="shape383" fill="none"/><g id="shape384"><text style="fill:#191919;font-family:Microsoft YaHei;font-size:9.00pt" xml:space="preserve"><tspan x="5.3" y="30.5">U[1]</tspan></text></g><g transform="translate(0.00,19.00)" id="shape385"><text style="fill:#191919;font-family:Microsoft YaHei;font-size:9.00pt" xml:space="preserve"><tspan x="5.3" y="30.5">U[2]</tspan></text></g><g transform="translate(0.00,38.00)" id="shape386"><text style="fill:#191919;font-family:Microsoft YaHei;font-size:9.00pt" xml:space="preserve"><tspan x="5.3" y="30.5">U[3]</tspan></text></g><g transform="translate(0.00,76.00)" id="shape387"><text style="fill:#191919;font-family:Microsoft YaHei;font-size:9.00pt" xml:space="preserve"><tspan x="5.3" y="30.5">U[5]</tspan></text></g><g transform="translate(0.00,57.00)" id="shape388"><text style="fill:#191919;font-family:Microsoft YaHei;font-size:9.00pt" xml:space="preserve"><tspan x="5.3" y="30.5">U[4]</tspan></text></g><g transform="translate(0.00,110.00)" id="shape389"><text style="fill:#191919;font-family:Microsoft YaHei;font-size:9.00pt" xml:space="preserve"><tspan x="5.3" y="30.5">U[7]</tspan></text></g><g transform="translate(0.00,92.00)" id="shape390"><text style="fill:#191919;font-family:Microsoft YaHei;font-size:9.00pt" xml:space="preserve"><tspan x="5.3" y="30.5">U[6]</tspan></text></g><g transform="translate(0.00,130.00)" id="shape391"><text style="fill:#191919;font-family:Microsoft YaHei;font-size:9.00pt" xml:space="preserve"><tspan x="6.0" y="30.5">T[0]</tspan></text></g><g transform="translate(0.00,151.00)" id="shape392"><text style="fill:#191919;font-family:Microsoft YaHei;font-size:9.00pt" xml:space="preserve"><tspan x="6.0" y="30.5">T[1]</tspan></text></g><g transform="translate(0.00,171.00)" id="shape393"><text style="fill:#191919;font-family:Microsoft YaHei;font-size:9.00pt" xml:space="preserve"><tspan x="6.0" y="30.5">T[2]</tspan></text></g><g transform="translate(0.00,190.00)" id="shape394"><text style="fill:#191919;font-family:Microsoft YaHei;font-size:9.00pt" xml:space="preserve"><tspan x="6.0" y="30.5">T[3]</tspan></text></g><g transform="translate(0.00,208.00)" id="shape395"><text style="fill:#191919;font-family:Microsoft YaHei;font-size:9.00pt" xml:space="preserve"><tspan x="6.0" y="30.5">T[4]</tspan></text></g><g transform="translate(0.00,227.00)" id="shape396"><text style="fill:#191919;font-family:Microsoft YaHei;font-size:9.00pt" xml:space="preserve"><tspan x="6.0" y="30.5">T[5]</tspan></text></g><g transform="translate(0.00,246.00)" id="shape397"><text style="fill:#191919;font-family:Microsoft YaHei;font-size:9.00pt" xml:space="preserve"><tspan x="6.0" y="30.5">T[6]</tspan></text></g><g transform="translate(0.00,266.00)" id="shape398"><text style="fill:#191919;font-family:Microsoft YaHei;font-size:9.00pt" xml:space="preserve"><tspan x="6.0" y="30.5">T[7]</tspan></text></g><g transform="translate(0.00,284.00)" id="shape399"><text style="fill:#191919;font-family:Microsoft YaHei;font-size:9.00pt" xml:space="preserve"><tspan x="6.0" y="30.5">T[8]</tspan></text></g><g transform="translate(0.00,302.85)" id="shape400"><text style="fill:#191919;font-family:Microsoft YaHei;font-size:9.00pt" xml:space="preserve"><tspan x="6.0" y="30.5">T[9]</tspan></text></g><g transform="translate(51.50,21.00)" id="group401"><g id="group402"><path stroke-width="1" d="M.0,6.0C.0,2.7,2.7,.0,6.0,.0C9.3,.0,12.0,2.7,12.0,6.0C12.0,9.3,9.3,12.0,6.0,12.0C2.7,12.0,.0,9.3,.0,6.0z" stroke="#000000" fill-rule="nonzero" id="shape403" fill="#ffffff"/></g><path stroke-width="1" stroke="#000000" d="M.0,6.0L12.0,6.0M6.0,.0L6.0,12.0" id="shape404" fill="none"/></g><path d="M.0,4.0C.0,1.8,1.8,.0,4.0,.0C6.2,.0,8.0,1.8,8.0,4.0C8.0,6.2,6.2,8.0,4.0,8.0C1.8,8.0,.0,6.2,.0,4.0z" transform="translate(53.50,5.00)" fill-rule="nonzero" id="shape405" fill="#000000"/><path stroke-width="1" stroke="#191919" d="M.0,.0L.0,12.0" transform="translate(57.50,9.00)" id="shape406" fill="none"/><g transform="translate(70.50,21.00)" id="group407"><g id="group408"><path stroke-width="1" d="M.0,6.0C.0,2.7,2.7,.0,6.0,.0C9.3,.0,12.0,2.7,12.0,6.0C12.0,9.3,9.3,12.0,6.0,12.0C2.7,12.0,.0,9.3,.0,6.0z" stroke="#000000" fill-rule="nonzero" id="shape409" fill="#ffffff"/></g><path stroke-width="1" stroke="#000000" d="M.0,6.0L12.0,6.0M6.0,.0L6.0,12.0" id="shape410" fill="none"/></g><path d="M.0,4.0C.0,1.8,1.8,.0,4.0,.0C6.2,.0,8.0,1.8,8.0,4.0C8.0,6.2,6.2,8.0,4.0,8.0C1.8,8.0,.0,6.2,.0,4.0z" transform="translate(72.50,61.00)" fill-rule="nonzero" id="shape411" fill="#000000"/><path stroke-width="1" stroke="#191919" d="M.0,.0L.0,28.0" transform="translate(76.50,33.00)" id="shape412" fill="none"/><g transform="translate(86.50,154.00)" id="group413"><g id="group414"><path stroke-width="1" d="M.0,6.0C.0,2.7,2.7,.0,6.0,.0C9.3,.0,12.0,2.7,12.0,6.0C12.0,9.3,9.3,12.0,6.0,12.0C2.7,12.0,.0,9.3,.0,6.0z" stroke="#000000" fill-rule="nonzero" id="shape415" fill="#ffffff"/></g><path stroke-width="1" stroke="#000000" d="M.0,6.0L12.0,6.0M6.0,.0L6.0,12.0" id="shape416" fill="none"/></g><path d="M.0,4.0C.0,1.8,1.8,.0,4.0,.0C6.2,.0,8.0,1.8,8.0,4.0C8.0,6.2,6.2,8.0,4.0,8.0C1.8,8.0,.0,6.2,.0,4.0z" transform="translate(88.50,23.00)" fill-rule="nonzero" id="shape417" fill="#000000"/><path stroke-width="1" stroke="#191919" d="M.0,.0L.0,123.0" transform="translate(92.50,31.00)" id="shape418" fill="none"/><g transform="translate(104.50,97.00)" id="group419"><g id="group420"><path stroke-width="1" d="M.0,6.0C.0,2.7,2.7,.0,6.0,.0C9.3,.0,12.0,2.7,12.0,6.0C12.0,9.3,9.3,12.0,6.0,12.0C2.7,12.0,.0,9.3,.0,6.0z" stroke="#000000" fill-rule="nonzero" id="shape421" fill="#ffffff"/></g><path stroke-width="1" stroke="#000000" d="M.0,6.0L12.0,6.0M6.0,.0L6.0,12.0" id="shape422" fill="none"/></g><g transform="translate(121.50,97.00)" id="group423"><g id="group424"><path stroke-width="1" d="M.0,6.0C.0,2.7,2.7,.0,6.0,.0C9.3,.0,12.0,2.7,12.0,6.0C12.0,9.3,9.3,12.0,6.0,12.0C2.7,12.0,.0,9.3,.0,6.0z" stroke="#000000" fill-rule="nonzero" id="shape425" fill="#ffffff"/></g><path stroke-width="1" stroke="#000000" d="M.0,6.0L12.0,6.0M6.0,.0L6.0,12.0" id="shape426" fill="none"/></g><g transform="translate(138.50,97.00)" id="group427"><g id="group428"><path stroke-width="1" d="M.0,6.0C.0,2.7,2.7,.0,6.0,.0C9.3,.0,12.0,2.7,12.0,6.0C12.0,9.3,9.3,12.0,6.0,12.0C2.7,12.0,.0,9.3,.0,6.0z" stroke="#000000" fill-rule="nonzero" id="shape429" fill="#ffffff"/></g><path stroke-width="1" stroke="#000000" d="M.0,6.0L12.0,6.0M6.0,.0L6.0,12.0" id="shape430" fill="none"/></g><g transform="translate(155.50,97.00)" id="group431"><g id="group432"><path stroke-width="1" d="M.0,6.0C.0,2.7,2.7,.0,6.0,.0C9.3,.0,12.0,2.7,12.0,6.0C12.0,9.3,9.3,12.0,6.0,12.0C2.7,12.0,.0,9.3,.0,6.0z" stroke="#000000" fill-rule="nonzero" id="shape433" fill="#ffffff"/></g><path stroke-width="1" stroke="#000000" d="M.0,6.0L12.0,6.0M6.0,.0L6.0,12.0" id="shape434" fill="none"/></g><path d="M.0,4.0C.0,1.8,1.8,.0,4.0,.0C6.2,.0,8.0,1.8,8.0,4.0C8.0,6.2,6.2,8.0,4.0,8.0C1.8,8.0,.0,6.2,.0,4.0z" transform="translate(106.50,23.00)" fill-rule="nonzero" id="shape435" fill="#000000"/><path d="M.0,4.0C.0,1.8,1.8,.0,4.0,.0C6.2,.0,8.0,1.8,8.0,4.0C8.0,6.2,6.2,8.0,4.0,8.0C1.8,8.0,.0,6.2,.0,4.0z" transform="translate(123.50,80.00)" fill-rule="nonzero" id="shape436" fill="#000000"/><path d="M.0,4.0C.0,1.8,1.8,.0,4.0,.0C6.2,.0,8.0,1.8,8.0,4.0C8.0,6.2,6.2,8.0,4.0,8.0C1.8,8.0,.0,6.2,.0,4.0z" transform="translate(140.50,118.00)" fill-rule="nonzero" id="shape437" fill="#000000"/><path d="M.0,4.0C.0,1.8,1.8,.0,4.0,.0C6.2,.0,8.0,1.8,8.0,4.0C8.0,6.2,6.2,8.0,4.0,8.0C1.8,8.0,.0,6.2,.0,4.0z" transform="translate(157.50,137.00)" fill-rule="nonzero" id="shape438" fill="#000000"/><path stroke-width="1" stroke="#191919" d="M.0,.0L.0,66.0" transform="translate(110.50,31.00)" id="shape439" fill="none"/><path stroke-width="1" stroke="#191919" d="M.0,.0L.0,13.0" transform="translate(127.50,84.00)" id="shape440" fill="none"/><path stroke-width="1" stroke="#191919" d="M.0,.0L.0,13.0" transform="translate(144.50,109.00)" id="shape441" fill="none"/><path stroke-width="1" stroke="#191919" d="M.0,.0L.0,28.0" transform="translate(161.50,109.00)" id="shape442" fill="none"/><g transform="translate(173.50,173.00)" id="group443"><g id="group444"><path stroke-width="1" d="M.0,6.0C.0,2.7,2.7,.0,6.0,.0C9.3,.0,12.0,2.7,12.0,6.0C12.0,9.3,9.3,12.0,6.0,12.0C2.7,12.0,.0,9.3,.0,6.0z" stroke="#000000" fill-rule="nonzero" id="shape445" fill="#ffffff"/></g><path stroke-width="1" stroke="#000000" d="M.0,6.0L12.0,6.0M6.0,.0L6.0,12.0" id="shape446" fill="none"/></g><path d="M.0,4.0C.0,1.8,1.8,.0,4.0,.0C6.2,.0,8.0,1.8,8.0,4.0C8.0,6.2,6.2,8.0,4.0,8.0C1.8,8.0,.0,6.2,.0,4.0z" transform="translate(175.50,99.00)" fill-rule="nonzero" id="shape447" fill="#000000"/><path stroke-width="1" stroke="#191919" d="M.0,.0L.0,70.0" transform="translate(179.50,103.00)" id="shape448" fill="none"/><g transform="translate(191.50,78.00)" id="group449"><g id="group450"><path stroke-width="1" d="M.0,6.0C.0,2.7,2.7,.0,6.0,.0C9.3,.0,12.0,2.7,12.0,6.0C12.0,9.3,9.3,12.0,6.0,12.0C2.7,12.0,.0,9.3,.0,6.0z" stroke="#000000" fill-rule="nonzero" id="shape451" fill="#ffffff"/></g><path stroke-width="1" stroke="#000000" d="M.0,6.0L12.0,6.0M6.0,.0L6.0,12.0" id="shape452" fill="none"/></g><g transform="translate(209.50,78.00)" id="group453"><g id="group454"><path stroke-width="1" d="M.0,6.0C.0,2.7,2.7,.0,6.0,.0C9.3,.0,12.0,2.7,12.0,6.0C12.0,9.3,9.3,12.0,6.0,12.0C2.7,12.0,.0,9.3,.0,6.0z" stroke="#000000" fill-rule="nonzero" id="shape455" fill="#ffffff"/></g><path stroke-width="1" stroke="#000000" d="M.0,6.0L12.0,6.0M6.0,.0L6.0,12.0" id="shape456" fill="none"/></g><g transform="translate(227.50,78.00)" id="group457"><g id="group458"><path stroke-width="1" d="M.0,6.0C.0,2.7,2.7,.0,6.0,.0C9.3,.0,12.0,2.7,12.0,6.0C12.0,9.3,9.3,12.0,6.0,12.0C2.7,12.0,.0,9.3,.0,6.0z" stroke="#000000" fill-rule="nonzero" id="shape459" fill="#ffffff"/></g><path stroke-width="1" stroke="#000000" d="M.0,6.0L12.0,6.0M6.0,.0L6.0,12.0" id="shape460" fill="none"/></g><path d="M.0,4.0C.0,1.8,1.8,.0,4.0,.0C6.2,.0,8.0,1.8,8.0,4.0C8.0,6.2,6.2,8.0,4.0,8.0C1.8,8.0,.0,6.2,.0,4.0z" transform="translate(193.50,23.00)" fill-rule="nonzero" id="shape461" fill="#000000"/><path d="M.0,4.0C.0,1.8,1.8,.0,4.0,.0C6.2,.0,8.0,1.8,8.0,4.0C8.0,6.2,6.2,8.0,4.0,8.0C1.8,8.0,.0,6.2,.0,4.0z" transform="translate(211.50,61.00)" fill-rule="nonzero" id="shape462" fill="#000000"/><path d="M.0,4.0C.0,1.8,1.8,.0,4.0,.0C6.2,.0,8.0,1.8,8.0,4.0C8.0,6.2,6.2,8.0,4.0,8.0C1.8,8.0,.0,6.2,.0,4.0z" transform="translate(229.50,99.00)" fill-rule="nonzero" id="shape463" fill="#000000"/><path stroke-width="1" stroke="#191919" d="M.0,.0L.0,51.0" transform="translate(197.50,27.00)" id="shape464" fill="none"/><path stroke-width="1" stroke="#191919" d="M.0,.0L.0,13.0" transform="translate(215.50,65.00)" id="shape465" fill="none"/><path stroke-width="1" stroke="#191919" d="M.0,.0L.0,-13.0" transform="translate(233.50,103.00)" id="shape466" fill="none"/><g transform="translate(242.50,229.00)" id="group467"><g id="group468"><path stroke-width="1" d="M.0,6.0C.0,2.7,2.7,.0,6.0,.0C9.3,.0,12.0,2.7,12.0,6.0C12.0,9.3,9.3,12.0,6.0,12.0C2.7,12.0,.0,9.3,.0,6.0z" stroke="#000000" fill-rule="nonzero" id="shape469" fill="#ffffff"/></g><path stroke-width="1" stroke="#000000" d="M.0,6.0L12.0,6.0M6.0,.0L6.0,12.0" id="shape470" fill="none"/></g><path d="M.0,4.0C.0,1.8,1.8,.0,4.0,.0C6.2,.0,8.0,1.8,8.0,4.0C8.0,6.2,6.2,8.0,4.0,8.0C1.8,8.0,.0,6.2,.0,4.0z" transform="translate(244.50,80.00)" fill-rule="nonzero" id="shape471" fill="#000000"/><path stroke-width="1" stroke="#191919" d="M.0,.0L.0,145.0" transform="translate(248.50,84.00)" id="shape472" fill="none"/><g transform="translate(256.50,267.00)" id="group473"><g id="group474"><path stroke-width="1" d="M.0,6.0C.0,2.7,2.7,.0,6.0,.0C9.3,.0,12.0,2.7,12.0,6.0C12.0,9.3,9.3,12.0,6.0,12.0C2.7,12.0,.0,9.3,.0,6.0z" stroke="#000000" fill-rule="nonzero" id="shape475" fill="#ffffff"/></g><path stroke-width="1" stroke="#000000" d="M.0,6.0L12.0,6.0M6.0,.0L6.0,12.0" id="shape476" fill="none"/></g><path d="M.0,4.0C.0,1.8,1.8,.0,4.0,.0C6.2,.0,8.0,1.8,8.0,4.0C8.0,6.2,6.2,8.0,4.0,8.0C1.8,8.0,.0,6.2,.0,4.0z" transform="translate(258.50,213.00)" fill-rule="nonzero" id="shape477" fill="#000000"/><path d="M.0,4.0C.0,1.8,1.8,.0,4.0,.0C6.2,.0,8.0,1.8,8.0,4.0C8.0,6.2,6.2,8.0,4.0,8.0C1.8,8.0,.0,6.2,.0,4.0z" transform="translate(258.50,176.00)" fill-rule="nonzero" id="shape478" fill="#000000"/><path stroke-width="1" stroke="#191919" d="M.0,.0L.0,37.0" transform="translate(262.50,180.00)" id="shape479" fill="none"/><path stroke-width="1" stroke="#191919" d="M.0,.0L.0,50.0" transform="translate(262.50,217.00)" id="shape480" fill="none"/><g transform="translate(277.50,209.00)" id="group481"><g id="group482"><path stroke-width="1" d="M.0,6.0C.0,2.7,2.7,.0,6.0,.0C9.3,.0,12.0,2.7,12.0,6.0C12.0,9.3,9.3,12.0,6.0,12.0C2.7,12.0,.0,9.3,.0,6.0z" stroke="#000000" fill-rule="nonzero" id="shape483" fill="#ffffff"/></g><path stroke-width="1" stroke="#000000" d="M.0,6.0L12.0,6.0M6.0,.0L6.0,12.0" id="shape484" fill="none"/></g><path d="M.0,4.0C.0,1.8,1.8,.0,4.0,.0C6.2,.0,8.0,1.8,8.0,4.0C8.0,6.2,6.2,8.0,4.0,8.0C1.8,8.0,.0,6.2,.0,4.0z" transform="translate(279.50,156.00)" fill-rule="nonzero" id="shape485" fill="#000000"/><path stroke-width="1" stroke="#191919" d="M.0,.0L.0,49.0" transform="translate(283.50,160.00)" id="shape486" fill="none"/><g transform="translate(300.50,286.00)" id="group487"><g id="group488"><path stroke-width="1" d="M.0,6.0C.0,2.7,2.7,.0,6.0,.0C9.3,.0,12.0,2.7,12.0,6.0C12.0,9.3,9.3,12.0,6.0,12.0C2.7,12.0,.0,9.3,.0,6.0z" stroke="#000000" fill-rule="nonzero" id="shape489" fill="#ffffff"/></g><path stroke-width="1" stroke="#000000" d="M.0,6.0L12.0,6.0M6.0,.0L6.0,12.0" id="shape490" fill="none"/></g><path d="M.0,4.0C.0,1.8,1.8,.0,4.0,.0C6.2,.0,8.0,1.8,8.0,4.0C8.0,6.2,6.2,8.0,4.0,8.0C1.8,8.0,.0,6.2,.0,4.0z" transform="translate(302.50,231.00)" fill-rule="nonzero" id="shape491" fill="#000000"/><path stroke-width="1" stroke="#191919" d="M.0,.0L.0,51.0" transform="translate(306.50,235.00)" id="shape492" fill="none"/><g transform="translate(319.50,286.00)" id="group493"><g id="group494"><path stroke-width="1" d="M.0,6.0C.0,2.7,2.7,.0,6.0,.0C9.3,.0,12.0,2.7,12.0,6.0C12.0,9.3,9.3,12.0,6.0,12.0C2.7,12.0,.0,9.3,.0,6.0z" stroke="#000000" fill-rule="nonzero" id="shape495" fill="#ffffff"/></g><path stroke-width="1" stroke="#000000" d="M.0,6.0L12.0,6.0M6.0,.0L6.0,12.0" id="shape496" fill="none"/></g><path d="M.0,4.0C.0,1.8,1.8,.0,4.0,.0C6.2,.0,8.0,1.8,8.0,4.0C8.0,6.2,6.2,8.0,4.0,8.0C1.8,8.0,.0,6.2,.0,4.0z" transform="translate(321.50,269.00)" fill-rule="nonzero" id="shape497" fill="#000000"/><path stroke-width="1" stroke="#191919" d="M.0,.0L.0,13.0" transform="translate(325.50,273.00)" id="shape498" fill="none"/><g transform="translate(340.50,267.00)" id="group499"><g id="group500"><path stroke-width="1" d="M.0,6.0C.0,2.7,2.7,.0,6.0,.0C9.3,.0,12.0,2.7,12.0,6.0C12.0,9.3,9.3,12.0,6.0,12.0C2.7,12.0,.0,9.3,.0,6.0z" stroke="#000000" fill-rule="nonzero" id="shape501" fill="#ffffff"/></g><path stroke-width="1" stroke="#000000" d="M.0,6.0L12.0,6.0M6.0,.0L6.0,12.0" id="shape502" fill="none"/></g><path d="M.0,4.0C.0,1.8,1.8,.0,4.0,.0C6.2,.0,8.0,1.8,8.0,4.0C8.0,6.2,6.2,8.0,4.0,8.0C1.8,8.0,.0,6.2,.0,4.0z" transform="translate(342.50,156.00)" fill-rule="nonzero" id="shape503" fill="#000000"/><path stroke-width="1" stroke="#191919" d="M.0,.0L.0,107.0" transform="translate(346.50,160.00)" id="shape504" fill="none"/><g transform="translate(358.50,229.00)" id="group505"><g id="group506"><path stroke-width="1" d="M.0,6.0C.0,2.7,2.7,.0,6.0,.0C9.3,.0,12.0,2.7,12.0,6.0C12.0,9.3,9.3,12.0,6.0,12.0C2.7,12.0,.0,9.3,.0,6.0z" stroke="#000000" fill-rule="nonzero" id="shape507" fill="#ffffff"/></g><path stroke-width="1" stroke="#000000" d="M.0,6.0L12.0,6.0M6.0,.0L6.0,12.0" id="shape508" fill="none"/></g><path d="M.0,4.0C.0,1.8,1.8,.0,4.0,.0C6.2,.0,8.0,1.8,8.0,4.0C8.0,6.2,6.2,8.0,4.0,8.0C1.8,8.0,.0,6.2,.0,4.0z" transform="translate(360.50,176.00)" fill-rule="nonzero" id="shape509" fill="#000000"/><path stroke-width="1" stroke="#191919" d="M.0,.0L.0,49.0" transform="translate(364.50,180.00)" id="shape510" fill="none"/><g transform="translate(376.50,323.85)" id="group511"><g id="group512"><path stroke-width="1" d="M.0,6.0C.0,2.7,2.7,.0,6.0,.0C9.3,.0,12.0,2.7,12.0,6.0C12.0,9.3,9.3,12.0,6.0,12.0C2.7,12.0,.0,9.3,.0,6.0z" stroke="#000000" fill-rule="nonzero" id="shape513" fill="#ffffff"/></g><path stroke-width="1" stroke="#000000" d="M.0,6.0L12.0,6.0M6.0,.0L6.0,12.0" id="shape514" fill="none"/></g><path d="M.0,4.0C.0,1.8,1.8,.0,4.0,.0C6.2,.0,8.0,1.8,8.0,4.0C8.0,6.2,6.2,8.0,4.0,8.0C1.8,8.0,.0,6.2,.0,4.0z" transform="translate(378.50,269.00)" fill-rule="nonzero" id="shape515" fill="#000000"/><path d="M.0,4.0C.0,1.8,1.8,.0,4.0,.0C6.2,.0,8.0,1.8,8.0,4.0C8.0,6.2,6.2,8.0,4.0,8.0C1.8,8.0,.0,6.2,.0,4.0z" transform="translate(378.50,231.00)" fill-rule="nonzero" id="shape516" fill="#000000"/><path stroke-width="1" stroke="#191919" d="M.0,.0L.0,34.0" transform="translate(382.50,235.00)" id="shape517" fill="none"/><path stroke-width="1" stroke="#191919" d="M.0,.0L.0,51.0" transform="translate(382.50,273.00)" id="shape518" fill="none"/><g transform="translate(398.50,229.00)" id="group519"><g id="group520"><path stroke-width="1" d="M.0,6.0C.0,2.7,2.7,.0,6.0,.0C9.3,.0,12.0,2.7,12.0,6.0C12.0,9.3,9.3,12.0,6.0,12.0C2.7,12.0,.0,9.3,.0,6.0z" stroke="#000000" fill-rule="nonzero" id="shape521" fill="#ffffff"/></g><path stroke-width="1" stroke="#000000" d="M.0,6.0L12.0,6.0M6.0,.0L6.0,12.0" id="shape522" fill="none"/></g><path d="M.0,4.0C.0,1.8,1.8,.0,4.0,.0C6.2,.0,8.0,1.8,8.0,4.0C8.0,6.2,6.2,8.0,4.0,8.0C1.8,8.0,.0,6.2,.0,4.0z" transform="translate(400.50,176.00)" fill-rule="nonzero" id="shape523" fill="#000000"/><path stroke-width="1" stroke="#191919" d="M.0,.0L.0,49.0" transform="translate(404.50,180.00)" id="shape524" fill="none"/><g transform="translate(415.50,323.85)" id="group525"><g id="group526"><path stroke-width="1" d="M.0,6.0C.0,2.7,2.7,.0,6.0,.0C9.3,.0,12.0,2.7,12.0,6.0C12.0,9.3,9.3,12.0,6.0,12.0C2.7,12.0,.0,9.3,.0,6.0z" stroke="#000000" fill-rule="nonzero" id="shape527" fill="#ffffff"/></g><path stroke-width="1" stroke="#000000" d="M.0,6.0L12.0,6.0M6.0,.0L6.0,12.0" id="shape528" fill="none"/></g><path d="M.0,4.0C.0,1.8,1.8,.0,4.0,.0C6.2,.0,8.0,1.8,8.0,4.0C8.0,6.2,6.2,8.0,4.0,8.0C1.8,8.0,.0,6.2,.0,4.0z" transform="translate(417.50,231.00)" fill-rule="nonzero" id="shape529" fill="#000000"/><path stroke-width="1" stroke="#191919" d="M.0,.0L.0,89.0" transform="translate(421.50,235.00)" id="shape530" fill="none"/><g transform="translate(430.50,174.00)" id="group531"><g id="group532"><path stroke-width="1" d="M.0,6.0C.0,2.7,2.7,.0,6.0,.0C9.3,.0,12.0,2.7,12.0,6.0C12.0,9.3,9.3,12.0,6.0,12.0C2.7,12.0,.0,9.3,.0,6.0z" stroke="#000000" fill-rule="nonzero" id="shape533" fill="#ffffff"/></g><path stroke-width="1" stroke="#000000" d="M.0,6.0L12.0,6.0M6.0,.0L6.0,12.0" id="shape534" fill="none"/></g><path d="M.0,4.0C.0,1.8,1.8,.0,4.0,.0C6.2,.0,8.0,1.8,8.0,4.0C8.0,6.2,6.2,8.0,4.0,8.0C1.8,8.0,.0,6.2,.0,4.0z" transform="translate(432.50,325.85)" fill-rule="nonzero" id="shape535" fill="#000000"/><path stroke-width="1" stroke="#191919" d="M.0,.0L.0,144.0" transform="translate(436.50,186.00)" id="shape536" fill="none"/><g transform="translate(445.50,286.00)" id="group537"><g id="group538"><path stroke-width="1" d="M.0,6.0C.0,2.7,2.7,.0,6.0,.0C9.3,.0,12.0,2.7,12.0,6.0C12.0,9.3,9.3,12.0,6.0,12.0C2.7,12.0,.0,9.3,.0,6.0z" stroke="#000000" fill-rule="nonzero" id="shape539" fill="#ffffff"/></g><path stroke-width="1" stroke="#000000" d="M.0,6.0L12.0,6.0M6.0,.0L6.0,12.0" id="shape540" fill="none"/></g><path d="M.0,4.0C.0,1.8,1.8,.0,4.0,.0C6.2,.0,8.0,1.8,8.0,4.0C8.0,6.2,6.2,8.0,4.0,8.0C1.8,8.0,.0,6.2,.0,4.0z" transform="translate(447.50,325.85)" fill-rule="nonzero" id="shape541" fill="#000000"/><path stroke-width="1" stroke="#191919" d="M.0,.0L.0,28.0" transform="translate(451.50,298.00)" id="shape542" fill="none"/><g transform="translate(466.50,305.00)" id="group543"><g id="group544"><path stroke-width="1" d="M.0,6.0C.0,2.7,2.7,.0,6.0,.0C9.3,.0,12.0,2.7,12.0,6.0C12.0,9.3,9.3,12.0,6.0,12.0C2.7,12.0,.0,9.3,.0,6.0z" stroke="#000000" fill-rule="nonzero" id="shape545" fill="#ffffff"/></g><path stroke-width="1" stroke="#000000" d="M.0,6.0L12.0,6.0M6.0,.0L6.0,12.0" id="shape546" fill="none"/></g><path d="M.0,4.0C.0,1.8,1.8,.0,4.0,.0C6.2,.0,8.0,1.8,8.0,4.0C8.0,6.2,6.2,8.0,4.0,8.0C1.8,8.0,.0,6.2,.0,4.0z" transform="translate(468.50,288.00)" fill-rule="nonzero" id="shape547" fill="#000000"/><path d="M.0,4.0C.0,1.8,1.8,.0,4.0,.0C6.2,.0,8.0,1.8,8.0,4.0C8.0,6.2,6.2,8.0,4.0,8.0C1.8,8.0,.0,6.2,.0,4.0z" transform="translate(468.50,231.00)" fill-rule="nonzero" id="shape548" fill="#000000"/><path stroke-width="1" stroke="#191919" d="M.0,.0L.0,57.0" transform="translate(472.50,235.00)" id="shape549" fill="none"/><path stroke-width="1" stroke="#191919" d="M.0,.0L.0,-13.0" transform="translate(472.50,305.00)" id="shape550" fill="none"/><g transform="translate(487.50,286.00)" id="group551"><g id="group552"><path stroke-width="1" d="M.0,6.0C.0,2.7,2.7,.0,6.0,.0C9.3,.0,12.0,2.7,12.0,6.0C12.0,9.3,9.3,12.0,6.0,12.0C2.7,12.0,.0,9.3,.0,6.0z" stroke="#000000" fill-rule="nonzero" id="shape553" fill="#ffffff"/></g><path stroke-width="1" stroke="#000000" d="M.0,6.0L12.0,6.0M6.0,.0L6.0,12.0" id="shape554" fill="none"/></g><path d="M.0,4.0C.0,1.8,1.8,.0,4.0,.0C6.2,.0,8.0,1.8,8.0,4.0C8.0,6.2,6.2,8.0,4.0,8.0C1.8,8.0,.0,6.2,.0,4.0z" transform="translate(489.50,325.85)" fill-rule="nonzero" id="shape555" fill="#000000"/><path stroke-width="1" stroke="#191919" d="M.0,.0L.0,32.0" transform="translate(493.50,298.00)" id="shape556" fill="none"/><g transform="translate(504.50,174.00)" id="group557"><g id="group558"><path stroke-width="1" d="M.0,6.0C.0,2.7,2.7,.0,6.0,.0C9.3,.0,12.0,2.7,12.0,6.0C12.0,9.3,9.3,12.0,6.0,12.0C2.7,12.0,.0,9.3,.0,6.0z" stroke="#000000" fill-rule="nonzero" id="shape559" fill="#ffffff"/></g><path stroke-width="1" stroke="#000000" d="M.0,6.0L12.0,6.0M6.0,.0L6.0,12.0" id="shape560" fill="none"/></g><path d="M.0,4.0C.0,1.8,1.8,.0,4.0,.0C6.2,.0,8.0,1.8,8.0,4.0C8.0,6.2,6.2,8.0,4.0,8.0C1.8,8.0,.0,6.2,.0,4.0z" transform="translate(506.50,307.00)" fill-rule="nonzero" id="shape561" fill="#000000"/><path stroke-width="1" stroke="#191919" d="M.0,.0L.0,125.0" transform="translate(510.50,186.00)" id="shape562" fill="none"/><g transform="translate(521.76,287.00)" id="group563"><g id="group564"><path stroke-width="1" d="M.0,6.0C.0,2.7,2.7,.0,6.0,.0C9.3,.0,12.0,2.7,12.0,6.0C12.0,9.3,9.3,12.0,6.0,12.0C2.7,12.0,.0,9.3,.0,6.0z" stroke="#000000" fill-rule="nonzero" id="shape565" fill="#ffffff"/></g><path stroke-width="1" stroke="#000000" d="M.0,6.0L12.0,6.0M6.0,.0L6.0,12.0" id="shape566" fill="none"/></g><path d="M.0,4.0C.0,1.8,1.8,.0,4.0,.0C6.2,.0,8.0,1.8,8.0,4.0C8.0,6.2,6.2,8.0,4.0,8.0C1.8,8.0,.0,6.2,.0,4.0z" transform="translate(523.76,307.00)" fill-rule="nonzero" id="shape567" fill="#000000"/><path stroke-width="1" stroke="#191919" d="M.0,.0L.0,12.0" transform="translate(527.76,299.00)" id="shape568" fill="none"/><g transform="translate(540.50,210.00)" id="group569"><g id="group570"><path stroke-width="1" d="M.0,6.0C.0,2.7,2.7,.0,6.0,.0C9.3,.0,12.0,2.7,12.0,6.0C12.0,9.3,9.3,12.0,6.0,12.0C2.7,12.0,.0,9.3,.0,6.0z" stroke="#000000" fill-rule="nonzero" id="shape571" fill="#ffffff"/></g><path stroke-width="1" stroke="#000000" d="M.0,6.0L12.0,6.0M6.0,.0L6.0,12.0" id="shape572" fill="none"/></g><path d="M.0,4.0C.0,1.8,1.8,.0,4.0,.0C6.2,.0,8.0,1.8,8.0,4.0C8.0,6.2,6.2,8.0,4.0,8.0C1.8,8.0,.0,6.2,.0,4.0z" transform="translate(542.50,156.00)" fill-rule="nonzero" id="shape573" fill="#000000"/><path d="M.0,4.0C.0,1.8,1.8,.0,4.0,.0C6.2,.0,8.0,1.8,8.0,4.0C8.0,6.2,6.2,8.0,4.0,8.0C1.8,8.0,.0,6.2,.0,4.0z" transform="translate(542.50,288.00)" fill-rule="nonzero" id="shape574" fill="#000000"/><path stroke-width="1" stroke="#191919" d="M.0,.0L.0,50.0" transform="translate(546.50,160.00)" id="shape575" fill="none"/><path stroke-width="1" stroke="#191919" d="M.0,.0L.0,70.0" transform="translate(546.50,222.00)" id="shape576" fill="none"/><g transform="translate(557.50,40.00)" id="group577"><g id="group578"><path stroke-width="1" d="M.0,6.0C.0,2.7,2.7,.0,6.0,.0C9.3,.0,12.0,2.7,12.0,6.0C12.0,9.3,9.3,12.0,6.0,12.0C2.7,12.0,.0,9.3,.0,6.0z" stroke="#000000" fill-rule="nonzero" id="shape579" fill="#ffffff"/></g><path stroke-width="1" stroke="#000000" d="M.0,6.0L12.0,6.0M6.0,.0L6.0,12.0" id="shape580" fill="none"/></g><path d="M.0,4.0C.0,1.8,1.8,.0,4.0,.0C6.2,.0,8.0,1.8,8.0,4.0C8.0,6.2,6.2,8.0,4.0,8.0C1.8,8.0,.0,6.2,.0,4.0z" transform="translate(559.50,5.00)" fill-rule="nonzero" id="shape581" fill="#000000"/><g transform="translate(578.50,40.00)" id="group582"><g id="group583"><path stroke-width="1" d="M.0,6.0C.0,2.7,2.7,.0,6.0,.0C9.3,.0,12.0,2.7,12.0,6.0C12.0,9.3,9.3,12.0,6.0,12.0C2.7,12.0,.0,9.3,.0,6.0z" stroke="#000000" fill-rule="nonzero" id="shape584" fill="#ffffff"/></g><path stroke-width="1" stroke="#000000" d="M.0,6.0L12.0,6.0M6.0,.0L6.0,12.0" id="shape585" fill="none"/></g><g transform="translate(599.50,40.00)" id="group586"><g id="group587"><path stroke-width="1" d="M.0,6.0C.0,2.7,2.7,.0,6.0,.0C9.3,.0,12.0,2.7,12.0,6.0C12.0,9.3,9.3,12.0,6.0,12.0C2.7,12.0,.0,9.3,.0,6.0z" stroke="#000000" fill-rule="nonzero" id="shape588" fill="#ffffff"/></g><path stroke-width="1" stroke="#000000" d="M.0,6.0L12.0,6.0M6.0,.0L6.0,12.0" id="shape589" fill="none"/></g><path d="M.0,4.0C.0,1.8,1.8,.0,4.0,.0C6.2,.0,8.0,1.8,8.0,4.0C8.0,6.2,6.2,8.0,4.0,8.0C1.8,8.0,.0,6.2,.0,4.0z" transform="translate(580.50,23.00)" fill-rule="nonzero" id="shape590" fill="#000000"/><path d="M.0,4.0C.0,1.8,1.8,.0,4.0,.0C6.2,.0,8.0,1.8,8.0,4.0C8.0,6.2,6.2,8.0,4.0,8.0C1.8,8.0,.0,6.2,.0,4.0z" transform="translate(601.50,118.00)" fill-rule="nonzero" id="shape591" fill="#000000"/><path stroke-width="1" stroke="#191919" d="M.0,.0L.0,31.0" transform="translate(563.50,9.00)" id="shape592" fill="none"/><path stroke-width="1" stroke="#191919" d="M.0,.0L.0,13.0" transform="translate(584.50,27.00)" id="shape593" fill="none"/><path stroke-width="1" stroke="#191919" d="M.0,.0L.0,70.0" transform="translate(605.50,52.00)" id="shape594" fill="none"/><g transform="translate(619.50,78.00)" id="group595"><g id="group596"><path stroke-width="1" d="M.0,6.0C.0,2.7,2.7,.0,6.0,.0C9.3,.0,12.0,2.7,12.0,6.0C12.0,9.3,9.3,12.0,6.0,12.0C2.7,12.0,.0,9.3,.0,6.0z" stroke="#000000" fill-rule="nonzero" id="shape597" fill="#ffffff"/></g><path stroke-width="1" stroke="#000000" d="M.0,6.0L12.0,6.0M6.0,.0L6.0,12.0" id="shape598" fill="none"/></g><g transform="translate(640.50,78.00)" id="group599"><g id="group600"><path stroke-width="1" d="M.0,6.0C.0,2.7,2.7,.0,6.0,.0C9.3,.0,12.0,2.7,12.0,6.0C12.0,9.3,9.3,12.0,6.0,12.0C2.7,12.0,.0,9.3,.0,6.0z" stroke="#000000" fill-rule="nonzero" id="shape601" fill="#ffffff"/></g><path stroke-width="1" stroke="#000000" d="M.0,6.0L12.0,6.0M6.0,.0L6.0,12.0" id="shape602" fill="none"/></g><g transform="translate(661.50,78.00)" id="group603"><g id="group604"><path stroke-width="1" d="M.0,6.0C.0,2.7,2.7,.0,6.0,.0C9.3,.0,12.0,2.7,12.0,6.0C12.0,9.3,9.3,12.0,6.0,12.0C2.7,12.0,.0,9.3,.0,6.0z" stroke="#000000" fill-rule="nonzero" id="shape605" fill="#ffffff"/></g><path stroke-width="1" stroke="#000000" d="M.0,6.0L12.0,6.0M6.0,.0L6.0,12.0" id="shape606" fill="none"/></g><path d="M.0,4.0C.0,1.8,1.8,.0,4.0,.0C6.2,.0,8.0,1.8,8.0,4.0C8.0,6.2,6.2,8.0,4.0,8.0C1.8,8.0,.0,6.2,.0,4.0z" transform="translate(621.50,23.00)" fill-rule="nonzero" id="shape607" fill="#000000"/><path d="M.0,4.0C.0,1.8,1.8,.0,4.0,.0C6.2,.0,8.0,1.8,8.0,4.0C8.0,6.2,6.2,8.0,4.0,8.0C1.8,8.0,.0,6.2,.0,4.0z" transform="translate(642.50,61.00)" fill-rule="nonzero" id="shape608" fill="#000000"/><path d="M.0,4.0C.0,1.8,1.8,.0,4.0,.0C6.2,.0,8.0,1.8,8.0,4.0C8.0,6.2,6.2,8.0,4.0,8.0C1.8,8.0,.0,6.2,.0,4.0z" transform="translate(663.50,99.00)" fill-rule="nonzero" id="shape609" fill="#000000"/><path stroke-width="1" stroke="#191919" d="M.0,.0L.0,51.0" transform="translate(625.50,27.00)" id="shape610" fill="none"/><path stroke-width="1" stroke="#191919" d="M.0,.0L.0,13.0" transform="translate(646.50,65.00)" id="shape611" fill="none"/><path stroke-width="1" stroke="#191919" d="M.0,.0L.0,13.0" transform="translate(667.50,90.00)" id="shape612" fill="none"/><g transform="translate(680.50,116.00)" id="group613"><g id="group614"><path stroke-width="1" d="M.0,6.0C.0,2.7,2.7,.0,6.0,.0C9.3,.0,12.0,2.7,12.0,6.0C12.0,9.3,9.3,12.0,6.0,12.0C2.7,12.0,.0,9.3,.0,6.0z" stroke="#000000" fill-rule="nonzero" id="shape615" fill="#ffffff"/></g><path stroke-width="1" stroke="#000000" d="M.0,6.0L12.0,6.0M6.0,.0L6.0,12.0" id="shape616" fill="none"/></g><g transform="translate(702.50,116.00)" id="group617"><g id="group618"><path stroke-width="1" d="M.0,6.0C.0,2.7,2.7,.0,6.0,.0C9.3,.0,12.0,2.7,12.0,6.0C12.0,9.3,9.3,12.0,6.0,12.0C2.7,12.0,.0,9.3,.0,6.0z" stroke="#000000" fill-rule="nonzero" id="shape619" fill="#ffffff"/></g><path stroke-width="1" stroke="#000000" d="M.0,6.0L12.0,6.0M6.0,.0L6.0,12.0" id="shape620" fill="none"/></g><g transform="translate(724.50,116.00)" id="group621"><g id="group622"><path stroke-width="1" d="M.0,6.0C.0,2.7,2.7,.0,6.0,.0C9.3,.0,12.0,2.7,12.0,6.0C12.0,9.3,9.3,12.0,6.0,12.0C2.7,12.0,.0,9.3,.0,6.0z" stroke="#000000" fill-rule="nonzero" id="shape623" fill="#ffffff"/></g><path stroke-width="1" stroke="#000000" d="M.0,6.0L12.0,6.0M6.0,.0L6.0,12.0" id="shape624" fill="none"/></g><g transform="translate(746.50,116.00)" id="group625"><g id="group626"><path stroke-width="1" d="M.0,6.0C.0,2.7,2.7,.0,6.0,.0C9.3,.0,12.0,2.7,12.0,6.0C12.0,9.3,9.3,12.0,6.0,12.0C2.7,12.0,.0,9.3,.0,6.0z" stroke="#000000" fill-rule="nonzero" id="shape627" fill="#ffffff"/></g><path stroke-width="1" stroke="#000000" d="M.0,6.0L12.0,6.0M6.0,.0L6.0,12.0" id="shape628" fill="none"/></g><g transform="translate(768.50,116.00)" id="group629"><g id="group630"><path stroke-width="1" d="M.0,6.0C.0,2.7,2.7,.0,6.0,.0C9.3,.0,12.0,2.7,12.0,6.0C12.0,9.3,9.3,12.0,6.0,12.0C2.7,12.0,.0,9.3,.0,6.0z" stroke="#000000" fill-rule="nonzero" id="shape631" fill="#ffffff"/></g><path stroke-width="1" stroke="#000000" d="M.0,6.0L12.0,6.0M6.0,.0L6.0,12.0" id="shape632" fill="none"/></g><path d="M.0,4.0C.0,1.8,1.8,.0,4.0,.0C6.2,.0,8.0,1.8,8.0,4.0C8.0,6.2,6.2,8.0,4.0,8.0C1.8,8.0,.0,6.2,.0,4.0z" transform="translate(682.50,23.00)" fill-rule="nonzero" id="shape633" fill="#000000"/><path d="M.0,4.0C.0,1.8,1.8,.0,4.0,.0C6.2,.0,8.0,1.8,8.0,4.0C8.0,6.2,6.2,8.0,4.0,8.0C1.8,8.0,.0,6.2,.0,4.0z" transform="translate(704.50,61.00)" fill-rule="nonzero" id="shape634" fill="#000000"/><path d="M.0,4.0C.0,1.8,1.8,.0,4.0,.0C6.2,.0,8.0,1.8,8.0,4.0C8.0,6.2,6.2,8.0,4.0,8.0C1.8,8.0,.0,6.2,.0,4.0z" transform="translate(726.50,80.00)" fill-rule="nonzero" id="shape635" fill="#000000"/><path d="M.0,4.0C.0,1.8,1.8,.0,4.0,.0C6.2,.0,8.0,1.8,8.0,4.0C8.0,6.2,6.2,8.0,4.0,8.0C1.8,8.0,.0,6.2,.0,4.0z" transform="translate(748.50,99.00)" fill-rule="nonzero" id="shape636" fill="#000000"/><path d="M.0,4.0C.0,1.8,1.8,.0,4.0,.0C6.2,.0,8.0,1.8,8.0,4.0C8.0,6.2,6.2,8.0,4.0,8.0C1.8,8.0,.0,6.2,.0,4.0z" transform="translate(770.50,138.00)" fill-rule="nonzero" id="shape637" fill="#000000"/><path stroke-width="1" stroke="#191919" d="M.0,.0L.0,89.0" transform="translate(686.50,27.00)" id="shape638" fill="none"/><path stroke-width="1" stroke="#191919" d="M.0,.0L.0,51.0" transform="translate(708.50,65.00)" id="shape639" fill="none"/><path stroke-width="1" stroke="#191919" d="M.0,.0L.0,32.0" transform="translate(730.50,84.00)" id="shape640" fill="none"/><path stroke-width="1" stroke="#191919" d="M.0,.0L.0,13.0" transform="translate(752.50,103.00)" id="shape641" fill="none"/><path stroke-width="1" stroke="#191919" d="M.0,.0L.0,14.0" transform="translate(774.50,128.00)" id="shape642" fill="none"/><g transform="translate(785.50,3.00)" id="group643"><g id="group644"><path stroke-width="1" d="M.0,6.0C.0,2.7,2.7,.0,6.0,.0C9.3,.0,12.0,2.7,12.0,6.0C12.0,9.3,9.3,12.0,6.0,12.0C2.7,12.0,.0,9.3,.0,6.0z" stroke="#000000" fill-rule="nonzero" id="shape645" fill="#ffffff"/></g><path stroke-width="1" stroke="#000000" d="M.0,6.0L12.0,6.0M6.0,.0L6.0,12.0" id="shape646" fill="none"/></g><g transform="translate(805.50,3.00)" id="group647"><g id="group648"><path stroke-width="1" d="M.0,6.0C.0,2.7,2.7,.0,6.0,.0C9.3,.0,12.0,2.7,12.0,6.0C12.0,9.3,9.3,12.0,6.0,12.0C2.7,12.0,.0,9.3,.0,6.0z" stroke="#000000" fill-rule="nonzero" id="shape649" fill="#ffffff"/></g><path stroke-width="1" stroke="#000000" d="M.0,6.0L12.0,6.0M6.0,.0L6.0,12.0" id="shape650" fill="none"/></g><path d="M.0,4.0C.0,1.8,1.8,.0,4.0,.0C6.2,.0,8.0,1.8,8.0,4.0C8.0,6.2,6.2,8.0,4.0,8.0C1.8,8.0,.0,6.2,.0,4.0z" transform="translate(787.50,23.00)" fill-rule="nonzero" id="shape651" fill="#000000"/><path d="M.0,4.0C.0,1.8,1.8,.0,4.0,.0C6.2,.0,8.0,1.8,8.0,4.0C8.0,6.2,6.2,8.0,4.0,8.0C1.8,8.0,.0,6.2,.0,4.0z" transform="translate(807.50,61.00)" fill-rule="nonzero" id="shape652" fill="#000000"/><path stroke-width="1" stroke="#191919" d="M.0,.0L.0,12.0" transform="translate(791.50,15.00)" id="shape653" fill="none"/><path stroke-width="1" stroke="#191919" d="M.0,.0L.0,50.0" transform="translate(811.50,15.00)" id="shape654" fill="none"/><g transform="translate(829.50,59.00)" id="group655"><g id="group656"><path stroke-width="1" d="M.0,6.0C.0,2.7,2.7,.0,6.0,.0C9.3,.0,12.0,2.7,12.0,6.0C12.0,9.3,9.3,12.0,6.0,12.0C2.7,12.0,.0,9.3,.0,6.0z" stroke="#000000" fill-rule="nonzero" id="shape657" fill="#ffffff"/></g><path stroke-width="1" stroke="#000000" d="M.0,6.0L12.0,6.0M6.0,.0L6.0,12.0" id="shape658" fill="none"/></g><g transform="translate(855.50,59.00)" id="group659"><g id="group660"><path stroke-width="1" d="M.0,6.0C.0,2.7,2.7,.0,6.0,.0C9.3,.0,12.0,2.7,12.0,6.0C12.0,9.3,9.3,12.0,6.0,12.0C2.7,12.0,.0,9.3,.0,6.0z" stroke="#000000" fill-rule="nonzero" id="shape661" fill="#ffffff"/></g><path stroke-width="1" stroke="#000000" d="M.0,6.0L12.0,6.0M6.0,.0L6.0,12.0" id="shape662" fill="none"/></g><g transform="translate(881.50,59.00)" id="group663"><g id="group664"><path stroke-width="1" d="M.0,6.0C.0,2.7,2.7,.0,6.0,.0C9.3,.0,12.0,2.7,12.0,6.0C12.0,9.3,9.3,12.0,6.0,12.0C2.7,12.0,.0,9.3,.0,6.0z" stroke="#000000" fill-rule="nonzero" id="shape665" fill="#ffffff"/></g><path stroke-width="1" stroke="#000000" d="M.0,6.0L12.0,6.0M6.0,.0L6.0,12.0" id="shape666" fill="none"/></g><path d="M.0,4.0C.0,1.8,1.8,.0,4.0,.0C6.2,.0,8.0,1.8,8.0,4.0C8.0,6.2,6.2,8.0,4.0,8.0C1.8,8.0,.0,6.2,.0,4.0z" transform="translate(831.50,5.00)" fill-rule="nonzero" id="shape667" fill="#000000"/><path d="M.0,4.0C.0,1.8,1.8,.0,4.0,.0C6.2,.0,8.0,1.8,8.0,4.0C8.0,6.2,6.2,8.0,4.0,8.0C1.8,8.0,.0,6.2,.0,4.0z" transform="translate(857.50,42.00)" fill-rule="nonzero" id="shape668" fill="#000000"/><path d="M.0,4.0C.0,1.8,1.8,.0,4.0,.0C6.2,.0,8.0,1.8,8.0,4.0C8.0,6.2,6.2,8.0,4.0,8.0C1.8,8.0,.0,6.2,.0,4.0z" transform="translate(883.50,118.00)" fill-rule="nonzero" id="shape669" fill="#000000"/><path stroke-width="1" stroke="#191919" d="M.0,.0L.0,50.0" transform="translate(835.50,9.00)" id="shape670" fill="none"/><path stroke-width="1" stroke="#191919" d="M.0,.0L.0,13.0" transform="translate(861.50,46.00)" id="shape671" fill="none"/><path stroke-width="1" stroke="#191919" d="M.0,.0L.0,51.0" transform="translate(887.50,71.00)" id="shape672" fill="none"/><g transform="translate(1024.50,0.00)" id="shape673"><text style="fill:#191919;font-family:Microsoft YaHei;font-size:9.00pt" xml:space="preserve"><tspan x="9.3" y="30.5">y</tspan><tspan x="15.7" style="font-size:5.85pt" y="33.1" textLength="9.6">19</tspan></text></g><g transform="translate(1024.50,17.00)" id="shape674"><text style="fill:#191919;font-family:Microsoft YaHei;font-size:5.85pt" xml:space="preserve"><tspan x="9.3" style="font-size:9.00pt" y="30.5">y</tspan><tspan x="15.7" y="33.1" textLength="9.6">14</tspan></text></g><g transform="translate(1024.50,36.00)" id="shape675"><text style="fill:#191919;font-family:Microsoft YaHei;font-size:9.00pt" xml:space="preserve"><tspan x="11.7" y="30.5">y</tspan><tspan x="18.1" style="font-size:5.85pt" y="33.1" textLength="4.8">2</tspan></text></g><g transform="translate(1024.50,57.00)" id="shape676"><text style="fill:#191919;font-family:Microsoft YaHei;font-size:9.00pt" xml:space="preserve"><tspan x="11.7" y="30.5">y</tspan><tspan x="18.1" style="font-size:5.85pt" y="33.1" textLength="4.8">6</tspan></text></g><g transform="translate(1024.50,76.00)" id="shape677"><text style="fill:#191919;font-family:Microsoft YaHei;font-size:9.00pt" xml:space="preserve"><tspan x="9.3" y="30.5">y</tspan><tspan x="15.7" style="font-size:5.85pt" y="33.1" textLength="9.6">21</tspan></text></g><g transform="translate(1024.50,95.00)" id="shape678"><text style="fill:#191919;font-family:Microsoft YaHei;font-size:9.00pt" xml:space="preserve"><tspan x="11.7" y="30.5">y</tspan><tspan x="18.1" style="font-size:5.85pt" y="33.1" textLength="4.8">4</tspan></text></g><g transform="translate(1024.50,115.00)" id="shape679"><text style="fill:#191919;font-family:Microsoft YaHei;font-size:9.00pt" xml:space="preserve"><tspan x="11.7" y="30.5">x</tspan><tspan x="18.1" style="font-size:5.85pt" y="33.1" textLength="4.8">7</tspan></text></g><g transform="translate(1024.50,132.00)" id="shape680"><text style="fill:#191919;font-family:Microsoft YaHei;font-size:9.00pt" xml:space="preserve"><tspan x="10.1" y="30.5">t</tspan><tspan x="14.8" style="font-size:5.85pt" y="33.1" textLength="9.6">29</tspan></text></g><g transform="translate(1024.50,153.00)" id="shape681"><text style="fill:#191919;font-family:Microsoft YaHei;font-size:9.00pt" xml:space="preserve"><tspan x="10.1" y="30.5">t</tspan><tspan x="14.8" style="font-size:5.85pt" y="33.1" textLength="9.6">37</tspan></text></g><g transform="translate(1024.50,170.00)" id="shape682"><text style="fill:#191919;font-family:Microsoft YaHei;font-size:9.00pt" xml:space="preserve"><tspan x="10.1" y="30.5">t</tspan><tspan x="14.8" style="font-size:5.85pt" y="33.1" textLength="9.6">11</tspan></text></g><g transform="translate(1024.50,189.00)" id="shape683"><text style="fill:#191919;font-family:Microsoft YaHei;font-size:9.00pt" xml:space="preserve"><tspan x="10.1" y="30.5">t</tspan><tspan x="14.8" style="font-size:5.85pt" y="33.1" textLength="9.6">40</tspan></text></g><g transform="translate(1024.50,209.00)" id="shape684"><text style="fill:#191919;font-family:Microsoft YaHei;font-size:9.00pt" xml:space="preserve"><tspan x="10.1" y="30.5">t</tspan><tspan x="14.8" style="font-size:5.85pt" y="33.1" textLength="9.6">24</tspan></text></g><g transform="translate(1024.50,227.00)" id="shape685"><text style="fill:#191919;font-family:Microsoft YaHei;font-size:9.00pt" xml:space="preserve"><tspan x="12.4" y="30.5">t</tspan><tspan x="17.3" style="font-size:5.85pt" y="33.1" textLength="4.8">4</tspan></text></g><g transform="translate(1024.50,246.00)" id="shape686"><text style="fill:#191919;font-family:Microsoft YaHei;font-size:9.00pt" xml:space="preserve"><tspan x="10.1" y="30.5">t</tspan><tspan x="14.8" style="font-size:5.85pt" y="33.1" textLength="9.6">31</tspan></text></g><g transform="translate(1024.50,265.00)" id="shape687"><text style="fill:#191919;font-family:Microsoft YaHei;font-size:9.00pt" xml:space="preserve"><tspan x="10.1" y="30.5">t</tspan><tspan x="14.8" style="font-size:5.85pt" y="33.1" textLength="9.6">38</tspan></text></g><g transform="translate(1024.50,284.00)" id="shape688"><text style="fill:#191919;font-family:Microsoft YaHei;font-size:9.00pt" xml:space="preserve"><tspan x="10.1" y="30.5">t</tspan><tspan x="14.8" style="font-size:5.85pt" y="33.1" textLength="9.6">36</tspan></text></g><g transform="translate(1024.50,302.85)" id="shape689"><text style="fill:#191919;font-family:Microsoft YaHei;font-size:9.00pt" xml:space="preserve"><tspan x="10.1" y="30.5">t</tspan><tspan x="14.8" style="font-size:5.85pt" y="33.1" textLength="9.6">33</tspan></text></g></g><g transform="translate(39.50,412.00)" id="shape690"><text style="fill:#191919;font-family:Microsoft YaHei;font-size:9.00pt" xml:space="preserve"><tspan x="5.3" y="30.5">U[0]</tspan></text></g><g transform="translate(1064.00,413.00)" id="shape691"><text style="fill:#191919;font-family:Microsoft YaHei;font-size:9.00pt" xml:space="preserve"><tspan x="11.7" y="30.5">y</tspan><tspan x="18.1" style="font-size:5.85pt" y="33.1" textLength="4.8">5</tspan></text></g><path stroke-width="1" stroke="#191919" d="M.0,.0L.0,-88.0" transform="translate(95.00,154.00)" id="shape692" fill="none"/><path stroke-width="1" stroke="#191919" d="M.0,.0L.0,-32.0" transform="translate(114.00,154.00)" id="shape693" fill="none"/></g></svg>